<svg preserveAspectRatio="xMinYMid meet" viewBox="0 0 384 512" xmlns="http://www.w3.org/2000/svg"><path d="m192 32c17.7 0 32 14.3 32 32v135.5l111.5-66.9c15.2-9.1 34.8-4.2 43.9 11s4.2 34.8-11 43.9l-114.2 68.5 114.3 68.6c15.2 9.1 20.1 28.7 11 43.9s-28.7 20.1-43.9 11l-111.6-67v135.5c0 17.7-14.3 32-32 32s-32-14.3-32-32v-135.5l-111.5 66.9c-15.2 9.1-34.8 4.2-43.9-11s-4.2-34.8 11-43.9l114.2-68.5-114.3-68.6c-15.2-9.1-20.1-28.7-11-43.9s28.7-20.1 43.9-11l111.6 67v-135.5c0-17.7 14.3-32 32-32z" fill="#fff"/></svg>