<svg fill="none" preserveAspectRatio="xMinYMid meet" viewBox="0 0 16 17" xmlns="http://www.w3.org/2000/svg"><path clip-rule="evenodd" d="m0 2.833c0-1.55644 1.26174-2.8181837 2.81818-2.8181837h3.18182c.55228 0 1 .4477157 1 1.0000037 0 .55228-.44772 1-1 1h-3.18182c-.45187 0-.81818.36631-.81818.81818v6.36363c0 .45187.36631.81817.81818.81817h6.36364c.45187 0 .81818-.3663.81818-.81817v-3.18181c0-.55229.4477-1 1-1s1 .44771 1 1v3.18181c0 1.55647-1.2617 2.81817-2.81818 2.81817h-6.36364c-1.55644 0-2.81818-1.2617-2.81818-2.81817zm13.7162 1.06358c.3922-.38885 1.0253-.38614 1.4142.00605.5365.54109.8696 1.28871.8696 2.11219v5.99998c0 2.2092-1.7909 4-4 4h-6.00002c-.82353 0-1.57119-.3331-2.11229-.8697-.39217-.3888-.39485-1.022-.00599-1.4142.38887-.3921 1.02203-.3948 1.41421-.006.18178.1803.42915.2899.70407.2899h6.00002c1.1045 0 2-.8954 2-2v-5.99998c0-.2749-.1096-.52226-.2899-.70404-.3888-.39219-.3861-1.02535.0061-1.4142zm-2.6195-3.588279c-.391-.3913129-1.0322-.3913129-1.42326 0l-.75075.751319 2.03331 2.03483.7507-.75132c.3911-.39132.3911-1.03307 0-1.424381zm-4.14475 6.793189 3.64425-3.64703-2.03325-2.03483-3.64429 3.64703c-.15641.15653-.28153.36001-.3441.57915l-.56306 1.89395c-.03128.12522 0 .26609.10948.36001.09385.10957.23461.14087.35974.09391l1.89253-.54783c.21897-.06261.4223-.18783.5787-.34436z" fill="#fff" fill-rule="evenodd"/></svg>