<svg preserveAspectRatio="xMinYMid meet" viewBox="0 0 512 512" xmlns="http://www.w3.org/2000/svg"><path d="m480 32c0-12.9-7.8-24.6-19.8-29.6s-25.7-2.2-34.9 6.9l-43.6 43.7c-48 48-113.1 75-181 75h-8.7-32-96c-35.3 0-64 28.7-64 64v96c0 35.3 28.7 64 64 64v128c0 17.7 14.3 32 32 32h64c17.7 0 32-14.3 32-32v-128h8.7c67.9 0 133 27 181 75l43.6 43.6c9.2 9.2 22.9 11.9 34.9 6.9s19.8-16.6 19.8-29.6v-147.5c18.6-8.8 32-32.5 32-60.4s-13.4-51.6-32-60.4zm-64 76.7v131.3 131.3c-58.8-53.5-135.5-83.3-215.3-83.3h-8.7v-96h8.7c79.8 0 156.5-29.8 215.3-83.3z" fill="#fff"/></svg>