<svg preserveAspectRatio="xMinYMid meet" viewBox="0 0 384 512" xmlns="http://www.w3.org/2000/svg"><path d="m0 32c0-17.7 14.3-32 32-32h32 256 32c17.7 0 32 14.3 32 32s-14.3 32-32 32v11c0 42.4-16.9 83.1-46.9 113.1l-67.8 67.9 67.9 67.9c30 30 46.9 70.7 46.9 113.1v11c17.7 0 32 14.3 32 32s-14.3 32-32 32h-32.1-256-32c-17.7 0-32-14.3-32-32s14.3-32 32-32v-11c0-42.4 16.9-83.1 46.9-113.1l67.8-67.9-67.8-67.9c-30-30-46.9-70.7-46.9-113.1v-11c-17.7 0-32-14.3-32-32zm96 32v11c0 25.5 10.1 49.9 28.1 67.9l67.9 67.8 67.9-67.9c18-18 28.1-42.4 28.1-67.9v-10.9zm0 384h192v-11c0-25.5-10.1-49.9-28.1-67.9l-67.9-67.8-67.9 67.9c-18 18-28.1 42.4-28.1 67.9v11z" fill="#fff"/></svg>