<svg preserveAspectRatio="xMinYMid meet" viewBox="0 0 576 512" xmlns="http://www.w3.org/2000/svg"><path d="m482.3 192c34.2 0 93.7 29 93.7 64 0 36-59.5 64-93.7 64h-116.6l-100.5 175.9c-5.7 10-16.3 16.1-27.8 16.1h-56.2c-10.6 0-18.3-10.2-15.4-20.4l49-171.6h-102.8l-43.2 57.6c-3 4-7.8 6.4-12.8 6.4h-42c-7.8 0-14-6.3-14-14 0-1.3.2-2.6.5-3.9l31.5-110.1-31.5-110.1c-.4-1.3-.5-2.6-.5-3.9 0-7.8 6.3-14 14-14h42c5 0 9.8 2.4 12.8 6.4l43.2 57.6h102.9l-49-171.6c-3-10.2 4.7-20.4 15.3-20.4h56.2c11.5 0 22.1 6.2 27.8 16.1l100.5 175.9z" fill="#fff"/></svg>