<svg height="16" preserveAspectRatio="xMinYMid meet" viewBox="0 0 16 16" width="16" xmlns="http://www.w3.org/2000/svg"><path d="m8 0c-4.4 0-8 3.6-8 8s3.6 8 8 8 8-3.5 8-8-3.6-8-8-8zm0 15c-3.9 0-7-3.1-7-7s3.1-7 7-7 7 3.2 7 7c0 3.9-3.1 7-7 7zm0-2.2c-4.9 0-5.8-4.4-5.8-4.4-.1-.2 0-.5.3-.6.3 0 .6.2.6.4 0 .1.8 3.6 4.9 3.6s4.8-3.5 4.9-3.6c.1-.3.3-.4.6-.4.3.1.4.3.4.6-.1.1-1 4.4-5.9 4.4zm3.4-7.6c0 .8-.3 1.5-.7 1.5s-.7-.7-.7-1.5.3-1.5.7-1.5.7.7.7 1.5zm-5.4-0c0 .8-.3 1.5-.7 1.5s-.7-.7-.7-1.5.3-1.5.7-1.5.7.7.7 1.5z" fill="#fff"/></svg>