<svg preserveAspectRatio="xMinYMid meet" viewBox="0 0 576 512" xmlns="http://www.w3.org/2000/svg"><path d="m413.5 237.5c-28.2 4.8-58.2-3.6-80-25.4l-38.1-38.1c-15-15-23.4-35.2-23.4-56.4v-12.1l-79.7-43.5c-5.3-2.9-8.6-8.6-8.3-14.7s3.9-11.5 9.5-14l47.2-21c18.4-8.1 38.3-12.3 58.5-12.3h18.1c36.7 0 72 14 98.7 39.1l44.6 42c24.2 22.8 33.2 55.7 26.6 86l15.8 15.9 8-8c9.4-9.4 24.6-9.4 33.9 0l24 24c9.4 9.4 9.4 24.6 0 33.9l-88 88c-9.4 9.4-24.6 9.4-33.9 0l-24-24c-9.4-9.4-9.4-24.6 0-33.9l8-8zm-386.1 139.6 233.5-194.5c3.5 4.9 7.5 9.6 11.8 14l38.1 38.1c6 6 12.4 11.2 19.2 15.7l-195.1 234.2c-14.5 17.4-36 27.4-58.6 27.4-42.2 0-76.3-34.2-76.3-76.3 0-22.6 10.1-44.1 27.4-58.6z" fill="#fff"/></svg>