<svg preserveAspectRatio="xMinYMid meet" viewBox="0 0 512 512" xmlns="http://www.w3.org/2000/svg"><path d="m169.7.9c-22.8-1.6-41.9 14-47.5 34.7l-11.8 44.4h1.6c176.7 0 320 143.3 320 320v1.6l44.4-11.8c20.8-5.5 36.3-24.7 34.7-47.5-12.6-182.8-158.6-328.8-341.4-341.4zm230.1 409.3c.1-3.4.2-6.8.2-10.2 0-159.1-128.9-288-288-288-3.4 0-6.8.1-10.2.2l-101.3 379.7c-1.5 5.5.1 11.4 4.1 15.4s9.9 5.6 15.4 4.1zm-223.8-202.2a32 32 0 1 1 0 64 32 32 0 1 1 0-64zm64 128a32 32 0 1 1 64 0 32 32 0 1 1 -64 0zm-144 48a32 32 0 1 1 64 0 32 32 0 1 1 -64 0z" fill="#fff"/></svg>