<svg fill="none" preserveAspectRatio="xMinYMid meet" viewBox="0 0 20 16" xmlns="http://www.w3.org/2000/svg"><path clip-rule="evenodd" d="m10 0c.5523.00000006 1 .447715 1 1v6.58578l.7929-.79289c.3905-.39052 1.0237-.39052 1.4142 0s.3905 1.02369 0 1.41421l-2.5 2.5c-.1875.1875-.4419.2929-.7071.2929-.26522 0-.51958-.1054-.70711-.2929l-2.5-2.5c-.39052-.39052-.39052-1.02369 0-1.41421.39053-.39052 1.02369-.39052 1.41422 0l.79289.79289v-6.58578c0-.552285.44771-1 1-1zm-7 6c-.45579 0-1 .4455-1 1.22222v5.55558c0 .7767.54421 1.2222 1 1.2222h14c.4558 0 1-.4455 1-1.2222v-5.55558c0-.77672-.5442-1.22222-1-1.22222-.5523 0-1-.44772-1-1s.4477-1 1-1c1.7534 0 3 1.54435 3 3.22222v5.55558c0 1.6779-1.2466 3.2222-3 3.2222h-14c-1.75335 0-3-1.5443-3-3.2222v-5.55558c0-1.67787 1.24665-3.22222 3-3.22222.55228 0 1 .44772 1 1s-.44772 1-1 1z" fill="#fff" fill-rule="evenodd"/></svg>