<svg fill="none" preserveAspectRatio="xMinYMid meet" viewBox="0 0 20 16" xmlns="http://www.w3.org/2000/svg"><path clip-rule="evenodd" d="m10 0c.2652 0 .5196.105357.7071.292894l2.5 2.500006c.3905.39052.3905 1.02369 0 1.41421s-1.0237.39052-1.4142 0l-.7929-.79289v6.58578c0 .5523-.4477 1-1 1-.55229 0-1-.4477-1-1v-6.58578l-.79289.79289c-.39052.39052-1.02369.39052-1.41421 0-.39053-.39052-.39053-1.02369 0-1.41421l2.49999-2.500006c.18754-.187537.44189-.292894.70711-.292894zm-7 6c-.45579 0-1 .4455-1 1.22222v5.55558c0 .7767.54421 1.2222 1 1.2222h14c.4558 0 1-.4455 1-1.2222v-5.55558c0-.77672-.5442-1.22222-1-1.22222-.5523 0-1-.44772-1-1s.4477-1 1-1c1.7534 0 3 1.54435 3 3.22222v5.55558c0 1.6779-1.2466 3.2222-3 3.2222h-14c-1.75335 0-3-1.5443-3-3.2222v-5.55558c0-1.67787 1.24665-3.22222 3-3.22222.55228 0 1 .44772 1 1s-.44772 1-1 1z" fill="#fff" fill-rule="evenodd"/></svg>