<svg fill="none" height="24" preserveAspectRatio="xMinYMid meet" viewBox="0 0 24 24" width="24" xmlns="http://www.w3.org/2000/svg"><path d="m3.1875 4.1875 1.21875.9375c.4375-.65625 1.21875-1.125 2.09375-1.125 1.375 0 2.5 1.125 2.5 2.5 0 .65625-.25 1.25-.65625 1.6875l1.25 1c.56245-.71875 1.40625-1.1875 2.40625-1.1875 1.6562 0 3 1.34375 3 3 0 .7188-.25 1.375-.6875 1.9062l.8125.5938c.5312-.6875.875-1.5312.875-2.5 0-.2188-.0312-.4688-.0625-.6875.4063-.1875.875-.3125 1.375-.3125h1.3437c1.8438 0 3.3438 1.5 3.3438 3.3438 0 .375-.3125.6562-.6875.6562h-5.5625l5.9375 4.6875c.3437.25.4063.7187.125 1.0313-.25.3437-.7187.4062-1.0313.125l-18.49995-14.50005c-.34375-.25-.40625-.71875-.125-1.03125.25-.34375.71875-.40625 1.03125-.125zm2.125 5.8125h.46875l2.28125 1.8125c.1875.875.625 1.625 1.28125 2.1875h-.03125-6.65625c-.375 0-.65625-.2812-.65625-.6562 0-1.8438 1.46875-3.3438 3.3125-3.3438zm4.8437 5h1.9688l5.7812 4.5625c-.1562.25-.4374.4375-.75.4375h-10.3437c-.46875 0-.8125-.375-.8125-.8125 0-2.3125 1.84375-4.1875 4.1562-4.1875zm7.8438-6c-.9062 0-1.7188-.46875-2.1875-1.25-.4375-.75-.4375-1.71875 0-2.5.4687-.75 1.2813-1.25 2.1875-1.25.875 0 1.6875.5 2.1562 1.25.4376.78125.4376 1.75 0 2.5-.4687.78125-1.2812 1.25-2.1562 1.25z" fill="#fff"/></svg>