<svg fill="none" height="16" preserveAspectRatio="xMinYMid meet" viewBox="0 0 20 16" width="20" xmlns="http://www.w3.org/2000/svg"><path d="m4.5 0c.875 0 1.6875.5 2.15625 1.25.4375.78125.4375 1.75 0 2.5-.46875.78125-1.28125 1.25-2.15625 1.25-.90625 0-1.71875-.46875-2.1875-1.25-.4375-.75-.4375-1.71875 0-2.5.46875-.75 1.28125-1.25 2.1875-1.25zm11.5 0c.875 0 1.6875.5 2.1562 1.25.4376.78125.4376 1.75 0 2.5-.4687.78125-1.2812 1.25-2.1562 1.25-.9062 0-1.7188-.46875-2.1875-1.25-.4375-.75-.4375-1.71875 0-2.5.4687-.75 1.2813-1.25 2.1875-1.25zm-16 9.34375c0-1.84375 1.46875-3.34375 3.3125-3.34375h1.34375c.5 0 .96875.125 1.40625.3125-.0625.21875-.0625.46875-.0625.6875 0 1.21875.5 2.28125 1.34375 3 0 0 0 0-.03125 0h-6.65625c-.375 0-.65625-.28125-.65625-.65625zm12.6562.65625h-.0312c.8438-.71875 1.3438-1.78125 1.3438-3 0-.21875 0-.46875-.0313-.6875.4063-.1875.875-.3125 1.375-.3125h1.3437c1.8438 0 3.3438 1.5 3.3438 3.34375 0 .375-.3125.65625-.6875.65625zm-5.6562-3c0-1.0625.5625-2.03125 1.5-2.59375.90625-.53125 2.0625-.53125 3 0 .9062.5625 1.5 1.53125 1.5 2.59375 0 1.09375-.5938 2.0625-1.5 2.625-.9375.5312-2.09375.5312-3 0-.9375-.5625-1.5-1.53125-1.5-2.625zm-3 8.1875c0-2.3125 1.84375-4.1875 4.15625-4.1875h3.65625c2.3125 0 4.1875 1.875 4.1875 4.1875 0 .4375-.375.8125-.8438.8125h-10.3437c-.4375 0-.8125-.3438-.8125-.8125z" fill="#fff"/></svg>