<svg fill="none" height="16" preserveAspectRatio="xMinYMid meet" viewBox="0 0 20 16" width="20" xmlns="http://www.w3.org/2000/svg"><g fill="#fff"><path d="m3.99937 3.99875c1.10423 0 1.99938-.89515 1.99938-1.99938 0-1.10422-.89515-1.99937-1.99938-1.99937-1.10422 0-1.99937.89515-1.99937 1.99937 0 1.10423.89515 1.99938 1.99937 1.99938z"/><path d="m11.9997 9.99937c0 1.10423-.8951 1.99933-1.9994 1.99933-1.10417 0-1.99932-.8951-1.99932-1.99933 0-1.10422.89515-1.99937 1.99932-1.99937 1.1043 0 1.9994.89515 1.9994 1.99937z"/><path d="m6 15.4456c0-1.6569 1.34315-3 3-3h2c1.6569 0 3 1.3431 3 3v.0544c0 .2761-.2239.5-.5.5h-7c-.27614 0-.5-.2239-.5-.5z"/><path d="m0 7.44556c0-1.65686 1.34315-3 3-3h2c1.65685 0 3 1.34314 3 3v.05444c0 .27614-.22386.5-.5.5h-7c-.276142 0-.5-.22386-.5-.5z"/><path d="m15.9994 3.99875c1.1042 0 1.9993-.89515 1.9993-1.99938 0-1.10422-.8951-1.99937-1.9993-1.99937-1.1043 0-1.9994.89515-1.9994 1.99937 0 1.10423.8951 1.99938 1.9994 1.99938z"/><path d="m12 7.44556c0-1.65686 1.3431-3 3-3h1.9993c1.6568 0 3 1.34314 3 3v.05444c0 .27614-.2239.5-.5.5h-6.9993c-.2761 0-.5-.22386-.5-.5z"/><path d="m2.29289 10.7071c-.39052-.3905-.39052-1.02368 0-1.41421.39053-.39052 1.02369-.39052 1.41422 0l2 2.00001c.39052.3905.39052 1.0237 0 1.4142-.39053.3905-1.02369.3905-1.41422 0z"/><path d="m17.7071 9.29289c.3905.39053.3905 1.02371 0 1.41421l-2 2c-.3905.3905-1.0237.3905-1.4142 0s-.3905-1.0237 0-1.4142l2-2.00001c.3905-.39052 1.0237-.39052 1.4142 0z"/><path d="m8.5 2c-.55228 0-1 .44772-1 1s.44772 1 1 1h3c.5523 0 1-.44772 1-1 0-.55229-.4477-1-1-1z"/></g></svg>