<svg preserveAspectRatio="xMinYMid meet" viewBox="0 0 640 512" xmlns="http://www.w3.org/2000/svg"><path d="m256 0h320c35.3 0 64 28.7 64 64v224c0 35.3-28.7 64-64 64h-320c-35.3 0-64-28.7-64-64v-224c0-35.3 28.7-64 64-64zm220 106.7c-4.5-6.7-12-10.7-20-10.7s-15.5 4-20 10.7l-56 84-17.3-21.7c-4.6-5.7-11.5-9-18.7-9s-14.2 3.3-18.7 9l-64 80c-5.8 7.2-6.9 17.1-2.9 25.4s12.4 13.6 21.6 13.6h80 48 144c8.9 0 17-4.9 21.2-12.7s3.7-17.3-1.2-24.6zm-140-10.7a32 32 0 1 0 -64 0 32 32 0 1 0 64 0zm-272 32h96v256 32c0 17.7 14.3 32 32 32h128c17.7 0 32-14.3 32-32v-32h160v64c0 35.3-28.7 64-64 64h-384c-35.3 0-64-28.7-64-64v-256c0-35.3 28.7-64 64-64zm8 64c-8.8 0-16 7.2-16 16v16c0 8.8 7.2 16 16 16h16c8.8 0 16-7.2 16-16v-16c0-8.8-7.2-16-16-16zm0 104c-8.8 0-16 7.2-16 16v16c0 8.8 7.2 16 16 16h16c8.8 0 16-7.2 16-16v-16c0-8.8-7.2-16-16-16zm0 104c-8.8 0-16 7.2-16 16v16c0 8.8 7.2 16 16 16h16c8.8 0 16-7.2 16-16v-16c0-8.8-7.2-16-16-16zm336 16v16c0 8.8 7.2 16 16 16h16c8.8 0 16-7.2 16-16v-16c0-8.8-7.2-16-16-16h-16c-8.8 0-16 7.2-16 16z" fill="#fff"/></svg>