<svg preserveAspectRatio="xMinYMid meet" viewBox="0 0 640 512" xmlns="http://www.w3.org/2000/svg"><path d="m38.8 5.1c-10.4-8.2-25.5-6.3-33.7 4.1s-6.3 25.5 4.1 33.7l592 464c10.4 8.2 25.5 6.3 33.7-4.1s6.3-25.5-4.1-33.7l-158.7-124.4c15.2-26 23.9-56.3 23.9-88.7v-40c0-13.3-10.7-24-24-24s-24 10.7-24 24v40c0 21.2-5.1 41.1-14.2 58.7l-17.8-13.9v-204.8c0-53-43-96-96-96s-96 43-96 96v54.3zm362.5 407-43.1-33.9c-12.1 3.8-24.9 5.8-38.2 5.8-70.7 0-128-57.3-128-128v-8.7l-47.3-37.3c-.5 1.9-.7 3.9-.7 6v40c0 89.1 66.2 162.7 152 174.4v33.6h-48c-13.3 0-24 10.7-24 24s10.7 24 24 24h72 72c13.3 0 24-10.7 24-24s-10.7-24-24-24h-48v-33.6c20.4-2.8 39.7-9.1 57.3-18.2z" fill="#fff"/></svg>