<svg preserveAspectRatio="xMinYMid meet" viewBox="0 0 512 512" xmlns="http://www.w3.org/2000/svg"><path d="m152.1 38.2c9.9 8.9 10.7 24 1.8 33.9l-72 80c-4.4 4.9-10.6 7.8-17.2 7.9s-12.9-2.4-17.6-7l-40.1-40c-9.3-9.4-9.3-24.6 0-34s24.6-9.4 33.9 0l22.1 22.1 55.1-61.2c8.9-9.9 24-10.7 33.9-1.8zm0 160c9.9 8.9 10.7 24 1.8 33.9l-72 80c-4.4 4.9-10.6 7.8-17.2 7.9s-12.9-2.4-17.6-7l-40.1-40c-9.4-9.4-9.4-24.6 0-33.9s24.6-9.4 33.9 0l22.1 22.1 55.1-61.2c8.9-9.9 24-10.7 33.9-1.8zm71.9-102.2c0-17.7 14.3-32 32-32h224c17.7 0 32 14.3 32 32s-14.3 32-32 32h-224c-17.7 0-32-14.3-32-32zm0 160c0-17.7 14.3-32 32-32h224c17.7 0 32 14.3 32 32s-14.3 32-32 32h-224c-17.7 0-32-14.3-32-32zm-64 160c0-17.7 14.3-32 32-32h288c17.7 0 32 14.3 32 32s-14.3 32-32 32h-288c-17.7 0-32-14.3-32-32zm-112-48a48 48 0 1 1 0 96 48 48 0 1 1 0-96z" fill="#fff"/></svg>