<svg preserveAspectRatio="xMinYMid meet" viewBox="0 0 640 512" xmlns="http://www.w3.org/2000/svg"><path d="m224 256a128 128 0 1 0 0-256 128 128 0 1 0 0 256zm-45.7 48c-98.5 0-178.3 79.8-178.3 178.3 0 16.4 13.3 29.7 29.7 29.7h362.9c-5.4-9.4-8.6-20.3-8.6-32v-128c0-2.1.1-4.2.3-6.3-31-26-71-41.7-114.6-41.7zm349.7-64c17.7 0 32 14.3 32 32v48h-64v-48c0-17.7 14.3-32 32-32zm-80 32v48c-17.7 0-32 14.3-32 32v128c0 17.7 14.3 32 32 32h160c17.7 0 32-14.3 32-32v-128c0-17.7-14.3-32-32-32v-48c0-44.2-35.8-80-80-80s-80 35.8-80 80z" fill="#fff"/></svg>