<svg preserveAspectRatio="xMinYMid meet" viewBox="0 0 448 512" xmlns="http://www.w3.org/2000/svg"><path d="m246.6 9.4c-12.5-12.5-32.8-12.5-45.3 0l-128 128c-12.5 12.5-12.5 32.8 0 45.3s32.8 12.5 45.3 0l73.4-73.4v210.7c0 17.7 14.3 32 32 32s32-14.3 32-32v-210.7l73.4 73.4c12.5 12.5 32.8 12.5 45.3 0s12.5-32.8 0-45.3l-128-128zm-182.6 342.6c0-17.7-14.3-32-32-32s-32 14.3-32 32v64c0 53 43 96 96 96h256c53 0 96-43 96-96v-64c0-17.7-14.3-32-32-32s-32 14.3-32 32v64c0 17.7-14.3 32-32 32h-256c-17.7 0-32-14.3-32-32z" fill="#fff"/></svg>