<svg preserveAspectRatio="xMinYMid meet" viewBox="0 0 512 512" xmlns="http://www.w3.org/2000/svg"><path d="m32 32c17.7 0 32 14.3 32 32v336c0 8.8 7.2 16 16 16h400c17.7 0 32 14.3 32 32s-14.3 32-32 32h-400c-44.2 0-80-35.8-80-80v-336c0-17.7 14.3-32 32-32zm128 192c17.7 0 32 14.3 32 32v64c0 17.7-14.3 32-32 32s-32-14.3-32-32v-64c0-17.7 14.3-32 32-32zm128-64v160c0 17.7-14.3 32-32 32s-32-14.3-32-32v-160c0-17.7 14.3-32 32-32s32 14.3 32 32zm64 32c17.7 0 32 14.3 32 32v96c0 17.7-14.3 32-32 32s-32-14.3-32-32v-96c0-17.7 14.3-32 32-32zm128-96v224c0 17.7-14.3 32-32 32s-32-14.3-32-32v-224c0-17.7 14.3-32 32-32s32 14.3 32 32z" fill="#fff"/></svg>