<svg preserveAspectRatio="xMinYMid meet" viewBox="0 0 448 512" xmlns="http://www.w3.org/2000/svg"><path d="m163.8 0h120.4c12.1 0 23.2 6.8 28.6 17.7l7.2 14.3h96c17.7 0 32 14.3 32 32s-14.3 32-32 32h-384c-17.7 0-32-14.3-32-32s14.3-32 32-32h96l7.2-14.3c5.4-10.9 16.5-17.7 28.6-17.7zm-131.8 128h384v320c0 35.3-28.7 64-64 64h-256c-35.3 0-64-28.7-64-64zm192 64c-6.4 0-12.5 2.5-17 7l-80 80c-9.4 9.4-9.4 24.6 0 33.9s24.6 9.4 33.9 0l39-39v134.1c0 13.3 10.7 24 24 24s24-10.7 24-24v-134.1l39 39c9.4 9.4 24.6 9.4 33.9 0s9.4-24.6 0-33.9l-80-80c-4.5-4.5-10.6-7-17-7z" fill="#fff"/></svg>