<svg preserveAspectRatio="xMinYMid meet" viewBox="0 0 448 512" xmlns="http://www.w3.org/2000/svg"><path d="m96 128a128 128 0 1 0 256 0 128 128 0 1 0 -256 0zm94.5 200.2 18.6 31-33.3 123.9-36-146.9c-2-8.1-9.8-13.4-17.9-11.3-70 17.5-121.9 80.9-121.9 156.4 0 17 13.8 30.7 30.7 30.7h131.8.1 5.4 112 5.5.1 131.7c17 0 30.7-13.8 30.7-30.7 0-75.5-51.9-138.9-121.9-156.4-8.1-2-15.9 3.3-17.9 11.3l-36 146.9-33.3-123.9 18.6-31c6.4-10.7-1.3-24.2-13.7-24.2h-19.8-19.7c-12.4 0-20.1 13.6-13.7 24.2z" fill="#fff"/></svg>