<svg preserveAspectRatio="xMinYMid meet" viewBox="0 0 640 512" xmlns="http://www.w3.org/2000/svg"><path d="m384 32h128c17.7 0 32 14.3 32 32s-14.3 32-32 32h-113.6c-5.2 25.8-22.9 47.1-46.4 57.3v294.7h160c17.7 0 32 14.3 32 32s-14.3 32-32 32h-192-192c-17.7 0-32-14.3-32-32s14.3-32 32-32h160v-294.7c-23.5-10.3-41.2-31.6-46.4-57.3h-113.6c-17.7 0-32-14.3-32-32s14.3-32 32-32h128c14.6-19.4 37.8-32 64-32s49.4 12.6 64 32zm55.6 288h144.8l-72.4-124.2zm72.4 96c-62.9 0-115.2-34-126-78.9-2.6-11 1-22.3 6.7-32.1l95.2-163.2c5-8.6 14.2-13.8 24.1-13.8s19.1 5.3 24.1 13.8l95.2 163.2c5.7 9.8 9.3 21.1 6.7 32.1-10.8 44.9-63.1 78.9-126 78.9zm-385.2-220.2-72.4 124.2h144.9zm-125.9 141.3c-2.6-11 1-22.3 6.7-32.1l95.2-163.2c5-8.6 14.2-13.8 24.1-13.8s19.1 5.3 24.1 13.8l95.2 163.2c5.7 9.8 9.3 21.1 6.7 32.1-10.9 44.9-63.2 78.9-126.1 78.9s-115.1-34-125.9-78.9z" fill="#fff"/></svg>