<svg fill="none" preserveAspectRatio="xMinYMid meet" viewBox="0 0 24 24" xmlns="http://www.w3.org/2000/svg"><path clip-rule="evenodd" d="m19.5 19c0 1.3807-1.1193 2.5-2.5 2.5h-10c-1.38071 0-2.5-1.1193-2.5-2.5v-14c0-1.38071 1.11929-2.5 2.5-2.5h6.1716c.663 0 1.2989.26339 1.7677.73223l3.8285 3.82843c.4688.46884.7322 1.10473.7322 1.76777zm-12.5-15.5c-.82843 0-1.5.67157-1.5 1.5v14c0 .8284.67157 1.5 1.5 1.5h10c.8284 0 1.5-.6716 1.5-1.5v-10c0-.27614-.2239-.5-.5-.5h-3c-.8284 0-1.5-.67157-1.5-1.5v-3c0-.27614-.2239-.5-.5-.5h-2.5v3h.5c.2761 0 .5.22386.5.5s-.2239.5-.5.5h-.5v1h.5c.2761 0 .5.22386.5.5s-.2239.5-.5.5h-.5v1h.5c.2761 0 .5.2239.5.5s-.2239.5-.5.5h-.5v1h.5c.2761 0 .5.2239.5.5s-.2239.5-.5.5h-.5v1h.5c.2761 0 .5.2239.5.5v1c0 .8284-.6716 1.5-1.5 1.5-.82843 0-1.5-.6716-1.5-1.5v-1c0-.2761.22386-.5.5-.5h.5v-2h-.5c-.27614 0-.5-.2239-.5-.5s.22386-.5.5-.5h.5v-1h-.5c-.27614 0-.5-.2239-.5-.5 0-.27614.22386-.5.5-.5h.5v-1h-.5c-.27614 0-.5-.22386-.5-.5s.22386-.5.5-.5h.5v-1h-.5c-.27614 0-.5-.22386-.5-.5s.22386-.5.5-.5h.5v-2zm7.5.70711v2.79289c0 .27614.2239.5.5.5h2.7929zm-5 11.29289v.5c0 .2761.22386.5.5.5.2761 0 .5-.2239.5-.5v-.5z" fill="#fff" fill-rule="evenodd"/></svg>