<svg fill="none" preserveAspectRatio="xMinYMid meet" viewBox="0 0 24 24" xmlns="http://www.w3.org/2000/svg"><g fill="#fff"><path clip-rule="evenodd" d="m7 14c0-.8284.67157-1.5 1.5-1.5h.79282l1.14648-1.1465c.945-.945 2.5607-.2757 2.5607 1.0606v4.1716c0 1.3364-1.6157 2.0056-2.5607 1.0607l-1.14633-1.1464h-.79297c-.82843 0-1.5-.6716-1.5-1.5zm2.49133 1.5c.13084-.0023.26239.0465.36222.1464l1.29285 1.2929c.315.3149.8536.0919.8536-.3536v-4.1716c0-.4454-.5386-.6685-.8536-.3535l-1.29285 1.2929c-.09763.0976-.22559.1464-.35355.1464l-1 .0001c-.27614 0-.5.2239-.5.5v1c0 .2761.22386.5.5.5z" fill-rule="evenodd"/><path d="m13.6843 13.0745c.1921-.1983.5086-.2034.707-.0113.3748.363.6088.873.6088 1.4368s-.234 1.0739-.6088 1.4369c-.1984.1921-.5149.187-.707-.0114s-.187-.5149.0113-.707c.1884-.1824.3045-.4364.3045-.7185 0-.282-.1161-.5361-.3045-.7185-.1983-.1921-.2034-.5086-.0113-.707z"/><path d="m14.7147 10.8852c-.2495-.1185-.5477-.0124-.6662.237-.1185.2495-.0124.5477.2371.6662 1.0147.4821 1.7145 1.5156 1.7145 2.7116s-.6998 2.2295-1.7145 2.7115c-.2495.1185-.3556.4168-.2371.6662s.4167.3556.6662.2371c1.3502-.6414 2.2854-2.0184 2.2854-3.6148s-.9352-2.9734-2.2854-3.6148z"/><path clip-rule="evenodd" d="m19.5 19c0 1.3807-1.1193 2.5-2.5 2.5h-10c-1.38071 0-2.5-1.1193-2.5-2.5v-14c0-1.38071 1.11929-2.5 2.5-2.5h6.1716c.663 0 1.2989.26339 1.7677.73223l3.8285 3.82843c.4688.46884.7322 1.10473.7322 1.76777zm-14-14c0-.82843.67157-1.5 1.5-1.5h6c.2761 0 .5.22386.5.5v3c0 .82843.6716 1.5 1.5 1.5h3c.2761 0 .5.22386.5.5v10c0 .8284-.6716 1.5-1.5 1.5h-10c-.82843 0-1.5-.6716-1.5-1.5zm9-.79289 3.2929 3.29289h-2.7929c-.2761 0-.5-.22386-.5-.5z" fill-rule="evenodd"/></g></svg>