<svg fill="none" preserveAspectRatio="xMinYMid meet" viewBox="0 0 24 24" xmlns="http://www.w3.org/2000/svg"><g clip-rule="evenodd" fill="#fff" fill-rule="evenodd"><path d="m7.5 12.5c0-1.1046.89543-2 2-2h5c1.1046 0 2 .8954 2 2v4c0 1.1046-.8954 2-2 2h-5c-1.10457 0-2-.8954-2-2zm3 5h4c.5523 0 1-.4477 1-1h-5zm-1-1v1c-.55228 0-1-.4477-1-1zm1-1h5v-1h-5zm-1-1v1h-1v-1zm1-1h5v-1c0-.5523-.4477-1-1-1h-4zm-1-2c-.55228 0-1 .4477-1 1v1h1z"/><path d="m19.5 19c0 1.3807-1.1193 2.5-2.5 2.5h-10c-1.38071 0-2.5-1.1193-2.5-2.5v-14c0-1.38071 1.11929-2.5 2.5-2.5h6.1716c.663 0 1.2989.26339 1.7677.73223l3.8285 3.82843c.4688.46884.7322 1.10473.7322 1.76777zm-14-14c0-.82843.67157-1.5 1.5-1.5h6c.2761 0 .5.22386.5.5v3c0 .82843.6716 1.5 1.5 1.5h3c.2761 0 .5.22386.5.5v10c0 .8284-.6716 1.5-1.5 1.5h-10c-.82843 0-1.5-.6716-1.5-1.5zm9-.79289 3.2929 3.29289h-2.7929c-.2761 0-.5-.22386-.5-.5z"/></g></svg>