<svg fill="none" preserveAspectRatio="xMinYMid meet" viewBox="0 0 24 24" xmlns="http://www.w3.org/2000/svg"><path clip-rule="evenodd" d="m7 3.5c-.82843 0-1.5.67157-1.5 1.5v14c0 .8284.67157 1.5 1.5 1.5h10c.8284 0 1.5-.6716 1.5-1.5v-10c0-.27614-.2239-.5-.5-.5h-3c-.8284 0-1.5-.67157-1.5-1.5v-3c0-.27614-.2239-.5-.5-.5zm12.5 15.5v-10-.17157c0-.66304-.2634-1.29893-.7322-1.76777l-3.8285-3.82843c-.4688-.46884-1.1047-.73223-1.7677-.73223h-.1716-6c-1.38071 0-2.5 1.11929-2.5 2.5v14c0 1.3807 1.11929 2.5 2.5 2.5h10c1.3807 0 2.5-1.1193 2.5-2.5zm-1.7071-11.5-3.2929-3.29289v2.79289c0 .27614.2239.5.5.5zm-8.2929 2.5c0-.27614-.22386-.5-.5-.5s-.5.22386-.5.5v7c0 .2761.22386.5.5.5s.5-.2239.5-.5zm2.5 1.5c.2761 0 .5.2239.5.5v5c0 .2761-.2239.5-.5.5s-.5-.2239-.5-.5v-5c0-.2761.2239-.5.5-.5zm3.5 1.5c0-.2761-.2239-.5-.5-.5s-.5.2239-.5.5v4c0 .2761.2239.5.5.5s.5-.2239.5-.5z" fill="#fff" fill-rule="evenodd"/></svg>