<svg fill="none" preserveAspectRatio="xMinYMid meet" viewBox="0 0 24 24" xmlns="http://www.w3.org/2000/svg"><g clip-rule="evenodd" fill="#fff" fill-rule="evenodd"><path d="m15.5 11.3645c0-.0825-.02-.1604-.0554-.229-.1553-.512-.6152-.8904-1.0997-1.1326-.6259-.31301-1.4557-.49216-2.3449-.49216s-1.719.17915-2.34492.49216c-.48443.2422-.9444.6206-1.09969 1.1326-.0354.0686-.05539.1465-.05539.229v5.3972c0 .7056.55903 1.2098 1.15508 1.5079.62592.3129 1.45572.4921 2.34492.4921s1.719-.1792 2.3449-.4921c.5961-.2981 1.1551-.8023 1.1551-1.5079zm-5.3977-.4672c-.48975.2449-.6023.4906-.6023.6134s.11255.3686.6023.6135c.4598.2299 1.1301.3866 1.8977.3866s1.4379-.1567 1.8977-.3866c.4898-.2449.6023-.4907.6023-.6135s-.1125-.3685-.6023-.6134c-.4598-.2299-1.1301-.3866-1.8977-.3866s-1.4379.1567-1.8977.3866zm4.3977 2.0385c-.0512.0292-.103.0568-.1551.0828-.6259.313-1.4557.4922-2.3449.4922s-1.719-.1792-2.34492-.4922c-.0521-.026-.1039-.0536-.15508-.0828v1.6263c.0082.0108.0246.029.05534.0546.08929.0742.24847.1634.48916.248.4768.1676 1.1682.2806 1.9555.2806.7874 0 1.4787-.113 1.9555-.2806.2407-.0846.3999-.1738.4892-.248.0307-.0256.0471-.0438.0553-.0546zm0 2.7904c-.0693.0292-.1404.0565-.2128.0819-.609.2141-1.4177.3372-2.2872.3372s-1.6782-.1231-2.28713-.3372c-.07243-.0254-.14358-.0527-.21287-.0819v1.0355c0 .1228.11255.3686.6023.6134.4598.23 1.1301.3866 1.8977.3866s1.4379-.1566 1.8977-.3866c.4898-.2448.6023-.4906.6023-.6134z"/><path d="m19.5 8.82843c0-.66304-.2634-1.29893-.7322-1.76777l-3.8285-3.82843c-.4688-.46884-1.1047-.73223-1.7677-.73223h-6.1716c-1.38071 0-2.5 1.11929-2.5 2.5v14c0 1.3807 1.11929 2.5 2.5 2.5h10c1.3807 0 2.5-1.1193 2.5-2.5zm-12.5-5.32843c-.82843 0-1.5.67157-1.5 1.5v14c0 .8284.67157 1.5 1.5 1.5h10c.8284 0 1.5-.6716 1.5-1.5v-10c0-.27614-.2239-.5-.5-.5h-3c-.8284 0-1.5-.67157-1.5-1.5v-3c0-.27614-.2239-.5-.5-.5zm7.5.70711v2.79289c0 .27614.2239.5.5.5h2.7929z"/></g></svg>