<svg fill="none" preserveAspectRatio="xMinYMid meet" viewBox="0 0 24 24" xmlns="http://www.w3.org/2000/svg"><g clip-rule="evenodd" fill="#fff" fill-rule="evenodd"><path d="m4.5 5c0-1.38071 1.11929-2.5 2.5-2.5h6.1716c.663 0 1.2989.26339 1.7677.73223l3.8285 3.82843c.4688.46884.7322 1.10473.7322 1.76777v10.17157c0 1.3807-1.1193 2.5-2.5 2.5h-10c-1.38071 0-2.5-1.1193-2.5-2.5 0-.2761.22386-.5.5-.5s.5.2239.5.5c0 .8284.67157 1.5 1.5 1.5h10c.8284 0 1.5-.6716 1.5-1.5v-10c0-.27614-.2239-.5-.5-.5h-3c-.8284 0-1.5-.67157-1.5-1.5v-3c0-.27614-.2239-.5-.5-.5h-6c-.82843 0-1.5.67157-1.5 1.5v6c0 .2761-.22386.5-.5.5s-.5-.2239-.5-.5zm10 2v-2.79289l3.2929 3.29289h-2.7929c-.2761 0-.5-.22386-.5-.5z"/><path d="m13.2964 16.1906c-.0921-.0496-.1689-.1223-.2303-.2211-.0611-.1032-.1083-.2322-.1398-.3894-.0316-.16-.0479-.3476-.0479-.5636v-.3018c0-.2215.0172-.4115.0506-.5709.0352-.161.0868-.289.1524-.3873.0654-.0982.1445-.1688.2369-.215.093-.0465.205-.0715.339-.0715.1861 0 .3242.03.4217.082l.0018.0009c.0995.0506.173.1259.2221.2275.0513.1041.0833.2357.0925.398.003.053.0468.0944.0998.0944h.8789c.0282 0 .055-.0119.074-.0327.0189-.0209.0282-.0487.0256-.0768-.0286-.3024-.1148-.5748-.2599-.8154-.1447-.2431-.349-.4333-.6104-.5702-.262-.1384-.5789-.2049-.9461-.2049-.2797 0-.5359.05-.7669.152-.2301.1016-.4289.2475-.5947.4361-.1641.189-.2894.4173-.377.6821-.0858.2635-.128.5564-.128.8776v.2959c0 .321.0411.6136.1248.877.0837.2631.2063.4906.3685.6798.164.1889.3622.3347.5924.4364.2312.0999.4901.1488.7751.1488.3612 0 .6762-.0646.9413-.1981.2652-.1327.4739-.3186.6229-.5578.1503-.2381.2339-.5094.2524-.8116.0017-.0276-.0081-.0546-.027-.0747-.0189-.02-.0453-.0314-.0728-.0314h-.876c-.0526 0-.0962.0407-.0998.0932-.011.1614-.0464.2896-.1017.3886l-.0007.0012c-.0525.0967-.1279.1691-.2287.2186-.1012.0498-.2361.0777-.4099.0777-.1439 0-.2611-.026-.3551-.0736zm0 0 .0009.0005-.0472.0881.0453-.0891zm-.2303-.2211-.0855.0519.086-.051zm2.308-1.7977c-.0032-.0334-.0071-.0664-.0117-.099h.0117zm-.1004.0011h.0994l-.0985.0093z"/><path d="m8.49264 12.7274c.23637-.1016.4951-.1517.77484-.1517.28151 0 .54034.05.77502.1517.2361.1015.4395.2489.6094.4415.1718.1926.303.4241.3947.6928.0941.2683.1402.5707.1402.9058v.2021c0 .3332-.0451.6354-.1372.9053-.0916.2688-.2218.5004-.3917.6931-.1699.1907-.3737.3374-.6097.4388-.23463.1017-.49341.1517-.77486.1517-.27974 0-.53847-.0501-.77484-.1517-.23391-.1014-.43735-.2477-.60898-.438-.17187-.1925-.30446-.4245-.39811-.6932-.09203-.27-.13741-.5728-.13741-.906v-.2021c0-.335.04511-.6372.13719-.9053.09161-.2688.22182-.5004.39171-.6931.17164-.1923.37558-.3402.60974-.4417zm.77484.7485c-.13453 0-.25001.0273-.34899.0793-.09683.0501-.18192.1263-.25366.2311-.06999.1051-.12545.2379-.16434.4009-.03877.1625-.05879.3536-.05879.5744v.208c0 .2187.01999.41.05882.5746.03882.1626.09517.2963.16711.4035.07168.1048.15731.182.25671.2342.09899.052.21447.0793.349.0793s.25001-.0273.34899-.0793c.09914-.0521.18356-.129.25315-.2333.07034-.1073.12592-.2414.16482-.4044.0388-.1646.0588-.3559.0588-.5746v-.208c0-.2208-.02-.4119-.0588-.5744-.0388-.1628-.09517-.2954-.16691-.4004-.07155-.1047-.15689-.1807-.25573-.231l-.00119-.0006c-.09899-.052-.21446-.0793-.34899-.0793z"/><path d="m4.50887 17.1525h.1994c.30203 0 .58119-.0503.835-.1522.25456-.1035.47449-.2502.65828-.4402.18566-.1919.32772-.4206.4267-.6844.10135-.2649.15114-.5555.15114-.8704v-.2019c0-.3166-.04973-.6073-.15119-.8705-.09897-.2637-.24101-.4924-.42665-.6843-.18547-.1917-.40528-.3385-.65818-.4401-.25193-.1041-.52789-.1552-.82632-.1552h-1.31646c-.06618 0-.11983.0537-.11983.1198v4.2595c0 .0662.05365.1199.11983.1199h.32192v.0025h.78636zm-1.22811-4.3794.00176.0117v.0037zm1.1173 3.4551v-2.6477h.31899c.15588 0 .28887.0268.40155.0773l.00137.0006c.11229.0486.20667.1211.28429.219.07787.0982.13868.2222.18007.3752l.00036.0012c.04314.1528.0657.3335.0657.5438v.2077c0 .2738-.03984.5013-.11437.6841-.07219.1814-.1768.3136-.31161.4036-.13451.0879-.30438.1352-.51614.1352z"/></g></svg>