<svg fill="none" preserveAspectRatio="xMinYMid meet" viewBox="0 0 24 24" xmlns="http://www.w3.org/2000/svg"><g fill="#fff"><path d="m7.92314 8.48501c.48093-.12024.85918-.16847 1.12596-.15028.27177.01854.3148.09406.31859.10071.01648.02884.07141.1804-.07059.5993-.13349.39377-.41101.93285-.8844 1.64736-.17426.1761-.31395.3315-.40642.4658-.04784.0695-.10482.1639-.13651.2742-.03282.1143-.05559.3154.07715.5051.12136.1734.29719.2251.38416.2427.09556.0193.18928.0186.26045.0148.14443-.0078.3187-.0372.48727-.0679.05569-.0101.11298-.0207.1717-.0316l.00114-.0002c.7088-.1314 1.62426-.3012 2.42896-.0999.1717.0429.2609.0854.3028.1115-.008.031-.026.0837-.0662.1642-.063.1259-.157.2753-.2813.4619-.0403.0604-.0835.1239-.1287.1906-.4838.7128-1.2053 1.7759-1.2053 3.0867 0 .8122.4125 1.45.9812 1.8766.5603.4202 1.2851.6498 1.9938.6853.7073.0353 1.4522-.1207 2.035-.5383.6019-.4314.99-1.1151.99-2.0236 0-.2761-.2239-.5-.5-.5-.2762 0-.5.2239-.5.5 0 .5915-.237.9703-.5725 1.2108-.3548.2542-.8599.3794-1.4026.3523-.5413-.0271-1.0665-.2036-1.4437-.4865-.3688-.2766-.5812-.6388-.5812-1.0766 0-.988.5467-1.8011 1.0475-2.5459.0399-.0593.0795-.1182.1185-.1767.1256-.1884.2504-.3828.3437-.5694.0903-.1806.1778-.4046.1778-.6455 0-.2736-.1127-.5207-.3309-.7077-.1949-.1672-.4538-.2695-.7353-.3399-.896-.224-1.8676-.0919-2.55366.0308.42652-.663.71626-1.22264.87466-1.6899.1704-.50293.2253-1.00772-.0082-1.41638-.24665-.43165-.70474-.57412-1.11885-.60237-.42072-.0287-.91747.04805-1.43654.17781-.2679.06698-.43078.33844-.36381.60634.06698.2679.33845.43078.60634.36381z"/><path clip-rule="evenodd" d="m19.5 19v-10.17157c0-.66304-.2634-1.29893-.7322-1.76777l-3.8285-3.82843c-.4688-.46884-1.1047-.73223-1.7677-.73223h-6.1716c-1.38071 0-2.5 1.11929-2.5 2.5v14c0 1.3807 1.11929 2.5 2.5 2.5h10c1.3807 0 2.5-1.1193 2.5-2.5zm-12.5-15.5c-.82843 0-1.5.67157-1.5 1.5v14c0 .8284.67157 1.5 1.5 1.5h10c.8284 0 1.5-.6716 1.5-1.5v-10c0-.27614-.2239-.5-.5-.5h-3c-.8284 0-1.5-.67157-1.5-1.5v-3c0-.27614-.2239-.5-.5-.5zm10.7929 4-3.2929-3.29289v2.79289c0 .27614.2239.5.5.5z" fill-rule="evenodd"/></g></svg>