<svg fill="none" preserveAspectRatio="xMinYMid meet" viewBox="0 0 24 24" xmlns="http://www.w3.org/2000/svg"><g fill="#fff"><path clip-rule="evenodd" d="m7.00003 2.5c-1.38071 0-2.5 1.11929-2.5 2.5v6c0 .2761.22386.5.5.5.27615 0 .5-.2239.5-.5v-6c0-.82843.67158-1.5 1.5-1.5h5.99997c.2762 0 .5.22386.5.5v3c0 .82843.6716 1.5 1.5 1.5h3c.2762 0 .5.22386.5.5v10c0 .8284-.6715 1.5-1.5 1.5h-9.99997c-.82842 0-1.5-.6716-1.5-1.5 0-.2761-.22385-.5-.5-.5-.27614 0-.5.2239-.5.5 0 1.3807 1.11929 2.5 2.5 2.5h9.99997c1.3807 0 2.5-1.1193 2.5-2.5v-10.17157c0-.66304-.2634-1.29893-.7322-1.76777l-3.8284-3.82843c-.4689-.46884-1.1048-.73223-1.7678-.73223zm7.49997 1.70711v2.79289c0 .27614.2239.5.5.5h2.7929z" fill-rule="evenodd"/><path d="m3.39572 12.6479c-.06591 0-.11935.0535-.11935.1194v4.2428c0 .0659.05344.1194.11935.1194h2.84699c.06592 0 .11936-.0535.11936-.1194v-.6819c0-.0659-.05344-.1193-.11936-.1193h-1.85342v-.9298h1.55911c.06592 0 .11936-.0535.11936-.1194v-.6644c0-.0659-.05344-.1193-.11936-.1193h-1.55911v-.8045h1.85051c.06592 0 .11936-.0535.11936-.1194v-.6848c0-.0659-.05344-.1194-.11936-.1194z"/><path clip-rule="evenodd" d="m7.29268 12.6479c-.06592 0-.11936.0535-.11936.1194v4.2428c0 .0659.05344.1194.11936.1194h.8742c.06592 0 .11936-.0535.11936-.1194v-1.393h.65868c.34477 0 .64718-.0564.90343-.174.25765-.1173.45915-.2863.59915-.5082.1401-.222.2078-.4819.2078-.7747 0-.2894-.0679-.551-.2065-.7813-.1389-.2309-.3393-.4099-.59653-.5376-.25731-.1306-.56118-.1934-.90735-.1934zm1.65224 2.0486h-.65868v-1.125h.65868c.15216 0 .26405.0301.34437.0807.08578.054.14627.1236.18481.2099.04133.0926.06248.1934.06248.3039 0 .1085-.02108.2019-.06066.2826-.03659.0746-.0944.1346-.17874.1801-.08232.0425-.19736.0678-.35226.0678z" fill-rule="evenodd"/><path d="m12.0647 12.7371c.2042-.0598.4262-.0892.6653-.0892.3272 0 .6177.059.8687.1803.2494.1206.446.2876.5862.502.1427.2152.2132.4608.2132.7333 0 .0554-.0449.1002-.1002.1002h-.875c-.0553 0-.1002-.0448-.1002-.1002 0-.1109-.0232-.203-.0664-.2797l-.0012-.0021c-.0404-.0762-.103-.1377-.1925-.1841-.0851-.045-.1995-.071-.3472-.071-.1432 0-.255.0221-.3397.0613l-.0015.0006c-.0875.0387-.1471.0889-.1855.148-.0394.0591-.0602.1266-.0602.2037 0 .0549.013.1022.038.1441.0285.0447.0727.0901.1367.135.0653.0459.1478.0907.2488.1337.1018.0434.2207.0862.3571.1285.2369.0717.4468.1529.6289.2439.1847.0914.3418.1952.4695.3125.1289.1184.2275.2539.2941.4066.0671.1535.0994.325.0994.5128 0 .1992-.0388.3811-.1189.5434-.0798.1617-.1951.2982-.3443.409-.1483.1102-.3233.1924-.5232.2481-.2001.0557-.4217.0829-.664.0829-.2202 0-.4373-.0285-.6512-.0856-.2155-.0595-.4133-.1493-.591-.2692-.1791-.1222-.3231-.2788-.4305-.4682-.1098-.1938-.1627-.42-.1627-.6748 0-.0553.0448-.1002.1002-.1002h.8837c.0554 0 .1002.0449.1002.1002 0 .1234.0192.2211.053.2968.0347.0777.0822.1382.142.184.0642.0476.1415.0834.2335.106.0969.0233.2043.0353.3228.0353.1443 0 .2545-.0205.3354-.0561.085-.0367.1412-.0846.1753-.1399l.0009-.0016c.038-.0592.0576-.1264.0576-.2043 0-.066-.0102-.122-.0285-.1693l-.0014-.0036c-.0145-.0423-.0434-.0846-.0928-.1261l-.0015-.0012c-.0509-.0444-.1269-.0916-.2318-.1403-.1042-.0484-.2417-.0997-.4136-.1538-.197-.0637-.3852-.1357-.563-.2156-.1785-.0812-.3385-.1763-.4785-.2854l-.0013-.001c-.1407-.1134-.2532-.2457-.3362-.3968-.0833-.1558-.1239-.335-.1239-.5327 0-.1934.0426-.3715.1295-.5321.0856-.1604.2052-.2967.3572-.4086.1516-.1137.3292-.1998.5307-.2595z"/></g></svg>