<svg fill="none" preserveAspectRatio="xMinYMid meet" viewBox="0 0 24 24" xmlns="http://www.w3.org/2000/svg"><g fill="#fff"><path d="m12.3536 9.64645c-.1953-.19527-.5119-.19527-.7072 0l-3.99995 3.99995c-.19527.1953-.19527.5119 0 .7072l3.99995 4c.1953.1952.5119.1952.7072 0l4-4c.1952-.1953.1952-.5119 0-.7072-.1953-.1952-.5119-.1952-.7072 0l-3.6464 3.6465-3.29289-3.2929 3.29289-3.2929 1.3799 1.3799-1.7335 1.7334c-.1952.1952-.1952.5118 0 .7071.1953.1952.5119.1952.7072 0l2.0869-2.087c.1953-.1953.1953-.5118 0-.7071z"/><path clip-rule="evenodd" d="m19.5 19v-10.17157c0-.66304-.2634-1.29893-.7322-1.76777l-3.8285-3.82843c-.4688-.46884-1.1047-.73223-1.7677-.73223h-6.1716c-1.38071 0-2.5 1.11929-2.5 2.5v14c0 1.3807 1.11929 2.5 2.5 2.5h10c1.3807 0 2.5-1.1193 2.5-2.5zm-12.5-15.5c-.82843 0-1.5.67157-1.5 1.5v14c0 .8284.67157 1.5 1.5 1.5h10c.8284 0 1.5-.6716 1.5-1.5v-10c0-.27614-.2239-.5-.5-.5h-3c-.8284 0-1.5-.67157-1.5-1.5v-3c0-.27614-.2239-.5-.5-.5zm10.7929 4-3.2929-3.29289v2.79289c0 .27614.2239.5.5.5z" fill-rule="evenodd"/></g></svg>