<svg fill="none" preserveAspectRatio="xMinYMid meet" viewBox="0 0 24 24" xmlns="http://www.w3.org/2000/svg"><g fill="#fff"><path clip-rule="evenodd" d="m4.5 5c0-1.38071 1.11929-2.5 2.5-2.5h6.1716c.663 0 1.2989.26339 1.7677.73223l3.8285 3.82843c.4688.46884.7322 1.10473.7322 1.76777v10.17157c0 1.3807-1.1193 2.5-2.5 2.5h-10c-1.38071 0-2.5-1.1193-2.5-2.5 0-.2761.22386-.5.5-.5s.5.2239.5.5c0 .8284.67157 1.5 1.5 1.5h10c.8284 0 1.5-.6716 1.5-1.5v-10c0-.27614-.2239-.5-.5-.5h-3c-.8284 0-1.5-.67157-1.5-1.5v-3c0-.27614-.2239-.5-.5-.5h-6c-.82843 0-1.5.67157-1.5 1.5v6c0 .2761-.22386.5-.5.5s-.5-.2239-.5-.5zm10 2v-2.79289l3.2929 3.29289h-2.7929c-.2761 0-.5-.22386-.5-.5z" fill-rule="evenodd"/><path d="m3.28076 12.7343c0-.0553.04477-.1.1-.1h2.7832c.05523 0 .1.0447.1.1v.6885c0 .0552-.04477.1-.1.1h-1.80429v.9337h1.59922c.05523 0 .1.0448.1.1v.6856c0 .0552-.04477.1-.1.1h-1.59922v1.6578c0 .0552-.04477.1-.1.1h-.87891c-.05523 0-.1-.0448-.1-.1z"/><path d="m6.87373 12.7343c0-.0553.04477-.1.1-.1h.87891c.05523 0 .1.0447.1.1v3.4801h1.76328c.05523 0 .1.0447.1.1v.6855c0 .0552-.04477.1-.1.1h-2.74219c-.05523 0-.1-.0448-.1-.1z"/></g></svg>