<svg fill="none" preserveAspectRatio="xMinYMid meet" viewBox="0 0 24 24" xmlns="http://www.w3.org/2000/svg"><path clip-rule="evenodd" d="m21.5 17c0 1.3807-1.1193 2.5-2.5 2.5h-14c-1.38071 0-2.5-1.1193-2.5-2.5v-11c0-1.38071 1.11929-2.5 2.5-2.5h3.38197c.56815 0 1.08755.321 1.34164.82918l.08541.17082h9.19098c1.3807 0 2.5 1.11929 2.5 2.5zm-18-11c0-.82843.67157-1.5 1.5-1.5h3.38197c.18938 0 .36251.107.44721.27639l1.44722 2.89443c.2541.50818.7735.82918 1.3416.82918h7.382c.8284 0 1.5.67157 1.5 1.5v7c0 .8284-.6716 1.5-1.5 1.5h-14c-.82843 0-1.5-.6716-1.5-1.5zm6.809-.5h8.691c.8284 0 1.5.67157 1.5 1.5v.99982c-.4178-.31385-.9372-.49982-1.5-.49982h-7.382c-.1894 0-.3625-.107-.4472-.27639z" fill="#fff" fill-rule="evenodd"/></svg>