<svg fill="none" preserveAspectRatio="xMinYMid meet" viewBox="0 0 24 24" xmlns="http://www.w3.org/2000/svg"><g fill="#fff"><path clip-rule="evenodd" d="m4.5 5c0-1.38071 1.11929-2.5 2.5-2.5h6.1716c.663 0 1.2989.26339 1.7677.73223l3.8285 3.82843c.4688.46884.7322 1.10473.7322 1.76777v10.17157c0 1.3807-1.1193 2.5-2.5 2.5h-10c-1.38071 0-2.5-1.1193-2.5-2.5 0-.2761.22386-.5.5-.5s.5.2239.5.5c0 .8284.67157 1.5 1.5 1.5h10c.8284 0 1.5-.6716 1.5-1.5v-10c0-.27614-.2239-.5-.5-.5h-3c-.8284 0-1.5-.67157-1.5-1.5v-3c0-.27614-.2239-.5-.5-.5h-6c-.82843 0-1.5.67157-1.5 1.5v6c0 .2761-.22386.5-.5.5s-.5-.2239-.5-.5zm10 2v-2.79289l3.2929 3.29289h-2.7929c-.2761 0-.5-.22386-.5-.5z" fill-rule="evenodd"/><path clip-rule="evenodd" d="m4.29714 12.7182c.23248-.0975.48902-.1454.76819-.1454.38093 0 .70244.062.95908.1923.25383.127.45035.3057.58586.5362.13513.2247.21721.481.24785.7671.00303.0282-.00608.0563-.02505.0774-.01896.0211-.046.0332-.07438.0332h-.85254c-.04955 0-.09163-.0363-.09891-.0853-.02001-.1346-.0577-.2485-.11125-.3435-.05081-.0902-.12352-.1609-.22076-.2129-.09196-.05-.21907-.079-.38646-.079-.13234 0-.24689.0272-.34607.0793-.09714.0503-.1812.1257-.25085.2284-.06992.1031-.12538.2339-.16427.3951-.03872.1604-.05873.3495-.05873.5683v.2725c0 .2164.0209.4052.06144.5674.04044.1599.09914.2911.17417.396.0764.1022.16893.178.27812.2292.1093.0512.23981.0784.39408.0784.1338 0 .24004-.0113.32096-.032.08816-.022.15381-.0475.19933-.0741.03574-.0215.064-.041.08576-.0584v-.611h-.70273c-.05523 0-.1-.0448-.1-.1v-.627c0-.0552.04477-.1.1-.1h1.68164c.05523 0 .1.0448.1.1v1.6904c0 .0234-.00814.0459-.02302.0639-.075.0904-.18622.1835-.32859.2797-.14913.0987-.33828.1819-.56309.2502-.23086.0701-.50588.1039-.82299.1039-.28639 0-.55008-.0468-.7898-.1418-.23982-.0972-.44801-.2395-.62218-.4261-.17253-.1871-.30455-.4147-.39639-.6801-.09215-.2682-.13734-.5717-.13734-.9086v-.2666c0-.3365.04305-.6394.13097-.9072.08968-.267.21834-.4959.38689-.6832.1681-.1868.36876-.3292.60106-.4267zm2.46155 1.36c-.00361-.0335-.00795-.0666-.01302-.0992h.01302zm-.10059.0009h.09968l-.09852.0106z" fill-rule="evenodd"/><path d="m8.0292 12.7343c0-.0553.04477-.1.1-.1h.87598c.05522 0 .1.0447.1.1v4.2656c0 .0552-.04478.1-.1.1h-.87598c-.05523 0-.1-.0448-.1-.1z"/><path d="m10.3284 12.7343c0-.0553.0448-.1.1-.1h2.7832c.0552 0 .1.0447.1.1v.6885c0 .0552-.0448.1-.1.1h-1.8043v.9337h1.5992c.0553 0 .1.0448.1.1v.6856c0 .0552-.0447.1-.1.1h-1.5992v1.6578c0 .0552-.0447.1-.1.1h-.8789c-.0552 0-.1-.0448-.1-.1z"/></g></svg>