<svg fill="none" preserveAspectRatio="xMinYMid meet" viewBox="0 0 24 24" xmlns="http://www.w3.org/2000/svg"><g fill="#fff"><path clip-rule="evenodd" d="m4.5 5c0-1.38071 1.11929-2.5 2.5-2.5h6.1716c.663 0 1.2989.26339 1.7677.73223l3.8285 3.82843c.4688.46884.7322 1.10473.7322 1.76777v10.17157c0 1.3807-1.1193 2.5-2.5 2.5h-10c-1.38071 0-2.5-1.1193-2.5-2.5 0-.2761.22386-.5.5-.5s.5.2239.5.5c0 .8284.67157 1.5 1.5 1.5h10c.8284 0 1.5-.6716 1.5-1.5v-10c0-.27614-.2239-.5-.5-.5h-3c-.8284 0-1.5-.67157-1.5-1.5v-3c0-.27614-.2239-.5-.5-.5h-6c-.82843 0-1.5.67157-1.5 1.5v5c0 .2761-.22386.5-.5.5s-.5-.2239-.5-.5zm10 2v-2.79289l3.2929 3.29289h-2.7929c-.2761 0-.5-.22386-.5-.5z" fill-rule="evenodd"/><path clip-rule="evenodd" d="m14.876 12.8991c-.1676-.5301-.7071-.868-1.4224-.8881-.5108-.0143-1.0219-.0115-1.5333-.0088-.2046.0011-.4093.0022-.614.0022-.0427.0066-.0844.0181-.124.0344v.9877l-.7149-.0003c-.47612-.0004-.95219-.0009-1.42924.0039-.07887 0-.21104.0277-.22627.0709-.05518.1608-.09443.3266-.13593.5019-.01535.0648-.03102.131-.04791.1987 1.36359-.4484 2.29425.0154 2.63365.696.2431.4864.2219.9759.0103 1.4679-.2116.4921-.5613.8373-1.0878 1.0222h2.2873v-1.8183c.1493 0 .2247.0014.2835.0026.0857.0016.1362.0026.3288-.0026.5036-.0164 1.0073-.0704 1.3929-.415.5853-.5245.6136-1.1778.3993-1.8553zm-1.9897 1.204c-.097.0106-.1369.0168-.1642.0211-.0453.007-.0562.0087-.2338.0164v-1.1156c.1798.0078.1901.0094.2416.0174.0295.0047.0726.0114.1689.0226.3074.036.4841.243.4841.5214.0025.1296-.0475.2553-.1398.3513-.0922.0961-.2199.1552-.3568.1654z" fill-rule="evenodd"/><path d="m9.43556 14.5822c-.27739-.1238-.59286-.0642-.83055.1402-.07832.0678-.18928.1577-.27685.15-.31233-.027-.62287-.0705-.94116-.115-.11066-.0155-.22246-.0312-.3354-.0463l.63638-2.6914h-1.47859v2.0987h-1.59343v-2.1028h-1.61596v4.9756h1.62902v-1.8024h1.59234v1.8111h2.04806c-.83763-.4736-1.09544-.753-1.19171-1.2779.10526-.0146.21045-.0297.31562-.0447.3133-.0448.62645-.0896.94081-.1223.07506-.0077.17569.0601.23878.1182.21104.1952.4509.2835.74189.2095.1464-.0345.27739-.1121.37407-.2215.09669-.1094.15407-.2449.16386-.3871.01586-.1421-.01587-.2852-.09071-.4093-.07484-.1242-.18902-.223-.32647-.2826z"/></g></svg>