<svg fill="none" preserveAspectRatio="xMinYMid meet" viewBox="0 0 24 24" xmlns="http://www.w3.org/2000/svg"><g clip-rule="evenodd" fill="#fff" fill-rule="evenodd"><path d="m9.21436 13.5c0-.8284.67157-1.5 1.50004-1.5.8284 0 1.5.6716 1.5 1.5s-.6716 1.5-1.5 1.5c-.82847 0-1.50004-.6716-1.50004-1.5zm1.50004-.5c-.2762 0-.5.2239-.5.5s.2238.5.5.5c.2761 0 .5-.2239.5-.5s-.2239-.5-.5-.5z"/><path d="m16.5 15.5382v-3.0382c0-1.1046-.8954-2-2-2h-5c-1.10457 0-2 .8954-2 2v4c0 1.1046.89543 2 2 2h5c1.1046 0 2-.8954 2-2v-.8131c.0074-.0493.0074-.0994 0-.1487zm-1.947-.671c-.2059-.206-.5436-.193-.7332.0281l-1.4124 1.6479c-.5895.6878-1.6536.6878-2.2431 0-.18084-.211-.50307-.2234-.6996-.0269l-.68125.6812c.18166.1866.43557.3025.71655.3025h5c.5523 0 1-.4477 1-1v-.6859zm.947-.4673-.2399-.2398c-.6178-.6179-1.6309-.579-2.1995.0844l-1.4125 1.6479c-.1904.2222-.5341.2222-.7245 0-.56-.6533-1.55756-.6916-2.16599-.0832l-.25761.2576v-3.5668c0-.5523.44772-1 1-1h5c.5523 0 1 .4477 1 1z"/><path d="m19.5 8.82843v10.17157c0 1.3807-1.1193 2.5-2.5 2.5h-10c-1.38071 0-2.5-1.1193-2.5-2.5v-14c0-1.38071 1.11929-2.5 2.5-2.5h6.1716c.663 0 1.2989.26339 1.7677.73223l3.8285 3.82843c.4688.46884.7322 1.10473.7322 1.76777zm-14-3.82843c0-.82843.67157-1.5 1.5-1.5h6c.2761 0 .5.22386.5.5v3c0 .82843.6716 1.5 1.5 1.5h3c.2761 0 .5.22386.5.5v10c0 .8284-.6716 1.5-1.5 1.5h-10c-.82843 0-1.5-.6716-1.5-1.5zm9 2v-2.79289l3.2929 3.29289h-2.7929c-.2761 0-.5-.22386-.5-.5z"/></g></svg>