<svg fill="none" preserveAspectRatio="xMinYMid meet" viewBox="0 0 24 24" xmlns="http://www.w3.org/2000/svg"><g fill="#fff"><path d="m14.5 13c0-.2761-.2239-.5-.5-.5s-.5.2239-.5.5v3c0 .2761.2239.5.5.5s.5-.2239.5-.5z"/><path d="m12 13.5c.2761 0 .5.2239.5.5v2c0 .2761-.2239.5-.5.5s-.5-.2239-.5-.5v-2c0-.2761.2239-.5.5-.5z"/><path d="m10.5 15c0-.2761-.2239-.5-.5-.5-.27614 0-.5.2239-.5.5v1c0 .2761.22386.5.5.5.2761 0 .5-.2239.5-.5z"/><g clip-rule="evenodd" fill-rule="evenodd"><path d="m7.5 17v-5.5h-.5c-.27614 0-.5-.2239-.5-.5s.22386-.5.5-.5h10c.2761 0 .5.2239.5.5s-.2239.5-.5.5h-.5v5.5c0 .8284-.6716 1.5-1.5 1.5h-2.5v.5c0 .2761-.2239.5-.5.5s-.5-.2239-.5-.5v-.5h-2.5c-.82843 0-1.5-.6716-1.5-1.5zm8 0c0 .2761-.2239.5-.5.5h-6c-.27614 0-.5-.2239-.5-.5v-5.5h7z"/><path d="m19.5 19c0 1.3807-1.1193 2.5-2.5 2.5h-10c-1.38071 0-2.5-1.1193-2.5-2.5v-14c0-1.38071 1.11929-2.5 2.5-2.5h6.1716c.663 0 1.2989.26339 1.7677.73223l3.8285 3.82843c.4688.46884.7322 1.10473.7322 1.76777zm-14-14c0-.82843.67157-1.5 1.5-1.5h6c.2761 0 .5.22386.5.5v3c0 .82843.6716 1.5 1.5 1.5h3c.2761 0 .5.22386.5.5v10c0 .8284-.6716 1.5-1.5 1.5h-10c-.82843 0-1.5-.6716-1.5-1.5zm9-.79289 3.2929 3.29289h-2.7929c-.2761 0-.5-.22386-.5-.5z"/></g></g></svg>