<svg fill="none" preserveAspectRatio="xMinYMid meet" viewBox="0 0 24 24" xmlns="http://www.w3.org/2000/svg"><g clip-rule="evenodd" fill="#fff" fill-rule="evenodd"><path d="m9.14645 5.03292c.19526-.19526.51184-.19526.7071 0l1.50005 1.5c.1952.19526.1952.51185 0 .70711l-1.2476 1.24752.7476.74752c.1952.19526.1952.51184 0 .70711-.1953.19522-.5119.19522-.7072 0l-.1464-.14645v1.70427c0 .2762.2239.5.5.5h.6271c.1712-.3053.4979-.5117.8729-.5117s.7017.2064.8729.5117h.1324c.8285 0 1.5.6716 1.5 1.5v1.5h1.4947c.8284 0 1.5.6716 1.5 1.5v1c0 .8284-.6716 1.5-1.5 1.5h-4c-.8284 0-1.5-.6716-1.5-1.5h-2.29289l.14644.1464c.19527.1953.19527.5119 0 .7072-.19526.1952-.51184.1952-.7071 0l-.99987-.9999c-.04794-.048-.08424-.1033-.10864-.1623-.02445-.059-.03794-.1236-.03794-.1914s.01349-.1324.03794-.1914c.0244-.059.06057-.1142.10851-.1622l1-1c.19526-.1952.51184-.1952.7071 0 .19527.1953.19527.5119 0 .7072l-.14644.1464h2.29289c0-.8284.6716-1.5 1.5-1.5h1.5053v-1.5c0-.2761-.2238-.5-.5-.5h-.146c-.1745.2924-.494.4883-.8593.4883s-.6848-.1959-.8593-.4883h-.6407c-.82843 0-1.5-.6715-1.5-1.5v-1.70427l-.14645.14645c-.19526.19522-.51184.19522-.7071 0-.19527-.19527-.19527-.51185 0-.70711l.74752-.74752-1.24752-1.24752c-.19527-.19526-.19527-.51185 0-.70711zm-.43934 1.85355.79289.7929.7929-.7929-.7929-.79289zm2.79289 10.61353c0 .2761.2239.5.5.5h4c.2761 0 .5-.2239.5-.5v-1c0-.2761-.2239-.5-.5-.5h-4c-.2761 0-.5.2239-.5.5z"/><path d="m19.5 19v-10.17157c0-.66304-.2634-1.29893-.7322-1.76777l-3.8285-3.82843c-.4688-.46884-1.1047-.73223-1.7677-.73223h-6.1716c-1.38071 0-2.5 1.11929-2.5 2.5v14c0 1.3807 1.11929 2.5 2.5 2.5h10c1.3807 0 2.5-1.1193 2.5-2.5zm-12.5-15.5c-.82843 0-1.5.67157-1.5 1.5v14c0 .8284.67157 1.5 1.5 1.5h10c.8284 0 1.5-.6716 1.5-1.5v-10c0-.27614-.2239-.5-.5-.5h-3c-.8284 0-1.5-.67157-1.5-1.5v-3c0-.27614-.2239-.5-.5-.5zm10.7929 4-3.2929-3.29289v2.79289c0 .27614.2239.5.5.5z"/></g></svg>