<svg fill="none" preserveAspectRatio="xMinYMid meet" viewBox="0 0 24 24" xmlns="http://www.w3.org/2000/svg"><g fill="#fff"><path d="m10.5 11.5c-.55229 0-1 .4477-1 1v.3418c0 .5529-.22424 1.0529-.58635 1.4147.36211.3617.58635.8617.58635 1.4146v.3418c0 .5523.44771 1 1 1 .2761 0 .5.2239.5.5 0 .2762-.2239.5-.5.5-1.10457 0-2-.8954-2-2v-.3418c0-.4346-.27755-.8057-.66662-.9432-.07749-.0274-.14401-.0719-.19679-.1279-.04071-.043-.07431-.0939-.0982-.1514-.01961-.047-.03209-.0972-.03661-.1486-.00312-.0354-.00239-.0707.00194-.1053.00564-.045.01738-.0889.03467-.1304.02389-.0575.05749-.1084.0982-.1514.05278-.0559.1193-.1005.19679-.1279.38907-.1375.66662-.5086.66662-.9432v-.3418c0-1.1046.89543-2 2-2 .2761 0 .5.2239.5.5s-.2239.5-.5.5z"/><path d="m13.5132 11.5c.5523 0 1 .4477 1 1v.3418c0 .5529.2242 1.0529.5863 1.4147-.3621.3617-.5863.8617-.5863 1.4146v.3418c0 .5523-.4477 1-1 1-.2762 0-.5.2239-.5.5 0 .2762.2238.5.5.5 1.1046 0 2-.8954 2-2v-.3418c0-.4346.2775-.8057.6666-.9432.0775-.0274.144-.0719.1968-.1279.0407-.043.0743-.0939.0982-.1514.0227-.0545.0359-.1132.0382-.1732.0007-.0206.0002-.0412-.0015-.0615-.0045-.0518-.017-.1022-.0367-.1496-.0239-.0575-.0575-.1084-.0982-.1514-.0528-.0559-.1193-.1005-.1968-.1279-.3891-.1375-.6666-.5086-.6666-.9432v-.3418c0-1.1046-.8954-2-2-2-.2762 0-.5.2239-.5.5s.2238.5.5.5z"/><path clip-rule="evenodd" d="m19.5 19c0 1.3807-1.1193 2.5-2.5 2.5h-10c-1.38071 0-2.5-1.1193-2.5-2.5v-14c0-1.38071 1.11929-2.5 2.5-2.5h6.1716c.663 0 1.2989.26339 1.7677.73223l3.8285 3.82843c.4688.46884.7322 1.10473.7322 1.76777zm-14 0v-14c0-.82843.67157-1.5 1.5-1.5h6c.2761 0 .5.22386.5.5v3c0 .82843.6716 1.5 1.5 1.5h3c.2761 0 .5.22386.5.5v10c0 .8284-.6716 1.5-1.5 1.5h-10c-.82843 0-1.5-.6716-1.5-1.5zm12.2929-11.5h-2.7929c-.2761 0-.5-.22386-.5-.5v-2.79289z" fill-rule="evenodd"/></g></svg>