<svg fill="none" preserveAspectRatio="xMinYMid meet" viewBox="0 0 24 24" xmlns="http://www.w3.org/2000/svg"><g fill="#fff"><path d="m9.81937 11.8504c.19523-.1953.19523-.5119 0-.7071-.19526-.1953-.51184-.1953-.7071 0l-2 2c-.09377.0937-.14645.2209-.14645.3535s.05268.2598.14645.3536l2 2c.19526.1952.51184.1952.7071 0 .19523-.1953.19523-.5119 0-.7071l-1.64644-1.6465z"/><path d="m14.1801 16.8567c-.1952-.1952-.1952-.5118 0-.7071l1.6465-1.6464-1.6465-1.6465c-.1952-.1952-.1952-.5118 0-.7071.1953-.1952.5119-.1952.7071 0l2 2c.0938.0938.1465.221.1465.3536s-.0527.2598-.1465.3535l-2 2c-.1952.1953-.5118.1953-.7071 0z"/><path d="m13.3082 11.0781c.0721-.2666-.0855-.5411-.3521-.6132-.2665-.0721-.5411.0855-.6132.3521l-1.6515 6.1051c-.0721.2665.0855.5411.352.6132.2666.0721.5412-.0855.6133-.3521z"/><path clip-rule="evenodd" d="m19.5 19v-10.17157c0-.66304-.2634-1.29893-.7322-1.76777l-3.8285-3.82843c-.4688-.46884-1.1047-.73223-1.7677-.73223h-6.1716c-1.38071 0-2.5 1.11929-2.5 2.5v14c0 1.3807 1.11929 2.5 2.5 2.5h10c1.3807 0 2.5-1.1193 2.5-2.5zm-12.5-15.5c-.82843 0-1.5.67157-1.5 1.5v14c0 .8284.67157 1.5 1.5 1.5h10c.8284 0 1.5-.6716 1.5-1.5v-10c0-.27614-.2239-.5-.5-.5h-3c-.8284 0-1.5-.67157-1.5-1.5v-3c0-.27614-.2239-.5-.5-.5zm10.7929 4-3.2929-3.29289v2.79289c0 .27614.2239.5.5.5z" fill-rule="evenodd"/></g></svg>