<svg fill="none" preserveAspectRatio="xMinYMid meet" viewBox="0 0 24 24" xmlns="http://www.w3.org/2000/svg"><g fill="#fff"><path d="m7.50892 14.9064c.51828-2.7209 2.82598-3.4064 3.91978-3.4064h4.5714c.2761 0 .5.2239.5.5s-.2239.5-.5.5h-1.5001v3.5c0 .7021.3305 1.2855.7777 1.5842.2296.1534.2915.4638.1381.6935-.1534.2296-.4638.2915-.6935.1381-.7484-.4998-1.2223-1.4087-1.2223-2.4158v-3.5h-1.9453c.101 1.3918-.0032 3.8861-1.1259 5.7573-.1421.2368-.44918.3135-.68597.1715-.23679-.1421-.31357-.4492-.1715-.686.94557-1.5759 1.07697-3.7644.99137-5.0929-.82354.2709-1.78838.9576-2.07144 2.4437-.05167.2712-.31346.4492-.58472.3976-.27127-.0517-.44929-.3135-.39762-.5848z"/><path clip-rule="evenodd" d="m19.5 19c0 1.3807-1.1193 2.5-2.5 2.5h-10c-1.38071 0-2.5-1.1193-2.5-2.5v-14c0-1.38071 1.11929-2.5 2.5-2.5h6.1716c.663 0 1.2989.26339 1.7677.73223l3.8285 3.82843c.4688.46884.7322 1.10473.7322 1.76777zm-14-14c0-.82843.67157-1.5 1.5-1.5h6c.2761 0 .5.22386.5.5v3c0 .82843.6716 1.5 1.5 1.5h3c.2761 0 .5.22386.5.5v10c0 .8284-.6716 1.5-1.5 1.5h-10c-.82843 0-1.5-.6716-1.5-1.5zm9-.79289 3.2929 3.29289h-2.7929c-.2761 0-.5-.22386-.5-.5z" fill-rule="evenodd"/></g></svg>