<svg fill="none" preserveAspectRatio="xMinYMid meet" viewBox="0 0 24 24" xmlns="http://www.w3.org/2000/svg"><g fill="#fff"><path clip-rule="evenodd" d="m4.5 5c0-1.38071 1.11929-2.5 2.5-2.5h6.1716c.663 0 1.2989.26339 1.7677.73223l3.8285 3.82843c.4688.46884.7322 1.10473.7322 1.76777v10.17157c0 1.3807-1.1193 2.5-2.5 2.5h-10c-1.38071 0-2.5-1.1193-2.5-2.5 0-.2761.22386-.5.5-.5s.5.2239.5.5c0 .8284.67157 1.5 1.5 1.5h10c.8284 0 1.5-.6716 1.5-1.5v-10c0-.27614-.2239-.5-.5-.5h-3c-.8284 0-1.5-.67157-1.5-1.5v-3c0-.27614-.2239-.5-.5-.5h-6c-.82843 0-1.5.67157-1.5 1.5v5c0 .2761-.22386.5-.5.5s-.5-.2239-.5-.5zm10 2v-2.79289l3.2929 3.29289h-2.7929c-.2761 0-.5-.22386-.5-.5z" fill-rule="evenodd"/><path d="m3.21135 15.9952c.03676.1061.08271.2218.12866.3279h.07353v-.8681c-.01238-.1907-.03385-.3807-.06434-.5692-.03031-.1202-.05182-.2428-.06433-.3665v-1.0997c-.00176-.008-.00156-.0163.00058-.0242.00215-.0079.00617-.015.01169-.0208s.01234-.01.01984-.0123c.0075-.0022.01543-.0024.02303-.0006h1.23151c.06433 0 .06434.0097.06434.0675v.492c.00918.0866.00918.1739 0 .2605v3.1832c0 .0772 0 .0772.08271.0772h1.16717c.0827 0 .08272 0 .08272-.0868v-2.6624c0-.0389-.00104-.0812-.00207-.123-.00204-.0825-.00403-.1634.00207-.2146.00919-.0772.07352-.0772.07352-.0772h.15624c.26232-.0554.51198-.1635.73523-.3183h.0919c.05378.0532.10298.1113.14704.1736.09986.1739.14488.3765.12867.5788v2.6817c0 .0868 0 .0868.08272.0868h1.20393c.05514 0 .05514-.0579.05514-.0579v-2.2283c-.02771-.2758-.02771-.5538 0-.8296.01945-.1044.0632-.2022.12733-.2847.06413-.0824.14667-.147.24029-.1879.16518-.0496.34029-.0496.50547 0 .08812.023.16946.0685.2368.1324.06734.064.11859.1444.1492.2341.05168.1348.0767.2792.07352.4245v2.8553c0 .0675.01836.0675.06424.0675h1.2224c.0643.0096.0643-.0096.0643-.0675v-2.4791c.0152-.3039-.0064-.6086-.0643-.9068-.077-.3247-.2548-.6132-.5055-.8199-.3074-.2412-.6741-.3851-1.05685-.4148-.3047-.0473-.61435-.0473-.91904 0-.30323.0336-.58589.1768-.79956.4052h-.07352l-.42276-.3859-.30328-.2701.10109-.0772 1.19474-.9646v-.0675h-.06433l-.41356.0482-1.0569.1543c-.0442.0076-.08732.0147-.12976.0218-.28399.0474-.53737.0897-.88118.1904-.39518.1158-.78118.2412-1.15798.3859-.54342.2185-1.069.4831-1.57156.791l-.25733.164v.0579h.13786c.03461 0 .0506-.0252.05799-.0228.00634.0019.00634.0242.00634.0999v1.0997c.00501.0287.00501.0581 0 .0868-.08557.2669-.10765.5517-.06433.8296.03676.1736.0919.4245.12867.5306z"/></g></svg>