<svg fill="none" preserveAspectRatio="xMinYMid meet" viewBox="0 0 24 24" xmlns="http://www.w3.org/2000/svg"><g fill="#fff"><path clip-rule="evenodd" d="m4.5 5c0-1.38071 1.11929-2.5 2.5-2.5h6.1716c.663 0 1.2989.26339 1.7677.73223l3.8285 3.82843c.4688.46884.7322 1.10473.7322 1.76777v10.17157c0 1.3807-1.1193 2.5-2.5 2.5h-10c-1.38071 0-2.5-1.1193-2.5-2.5 0-.2761.22386-.5.5-.5s.5.2239.5.5c0 .8284.67157 1.5 1.5 1.5h10c.8284 0 1.5-.6716 1.5-1.5v-10c0-.27614-.2239-.5-.5-.5h-3c-.8284 0-1.5-.67157-1.5-1.5v-3c0-.27614-.2239-.5-.5-.5h-6c-.82843 0-1.5.67157-1.5 1.5v6c0 .2761-.22386.5-.5.5s-.5-.2239-.5-.5zm10 2v-2.79289l3.2929 3.29289h-2.7929c-.2761 0-.5-.22386-.5-.5z" fill-rule="evenodd"/><path clip-rule="evenodd" d="m5.06533 12.5757c-.27973 0-.53847.0501-.77484.1517-.23416.1015-.4381.2494-.60974.4417-.16984.1927-.30002.4242-.39163.6928-.09214.2683-.13726.5706-.13726.9056v.2021c0 .3332.04537.636.1374.906.09365.2687.22624.5007.39811.6932.17164.1903.37507.3366.60898.438.23637.1016.49511.1517.77484.1517.28145 0 .54023-.05.77484-.1517.23599-.1014.43979-.2481.60974-.4388.16989-.1927.3001-.4243.39171-.6931.09204-.2699.13719-.5721.13719-.9053v-.2021c0-.3351-.04611-.6375-.14026-.9058-.09166-.2687-.22287-.5002-.3947-.6928-.16988-.1926-.3733-.34-.60939-.4415-.23465-.1017-.49348-.1517-.77499-.1517zm-.34899.9795c.09898-.052.21447-.0793.34899-.0793.13453 0 .25001.0273.34899.0793l.0012.0006c.09884.0503.18417.1263.25572.231.07174.105.12809.2376.16694.4004.03878.1625.05879.3536.05879.5744v.208c0 .2187-.01999.41-.05882.5746-.03891.163-.09448.2971-.16483.4045-.06959.1042-.154.1811-.25313.2332-.09899.052-.21447.0793-.349.0793-.13452 0-.25001-.0273-.34899-.0793-.09939-.0522-.18502-.1294-.25669-.2342-.07196-.1071-.12831-.2409-.16713-.4035-.03884-.1646-.05883-.3559-.05883-.5746v-.208c0-.2208.02002-.4119.05879-.5744.03889-.163.09434-.2957.16433-.4009.07174-.1048.15683-.181.25367-.2311z" fill-rule="evenodd"/><path d="m7.35752 12.6343c-.05523 0-.1.0447-.1.1v.6885c0 .0552.04477.1.1.1h1.19199v3.4771c0 .0552.04477.1.1.1h.87598c.05523 0 .1-.0448.1-.1v-3.4771h1.21251c.0552 0 .1-.0448.1-.1v-.6885c0-.0553-.0448-.1-.1-.1z"/><path d="m11.539 12.7343c0-.0553.0447-.1.1-.1h.8789c.0552 0 .1.0447.1.1v1.6373h1.5168v-1.6373c0-.0553.0447-.1.1-.1h.8759c.0553 0 .1.0447.1.1v4.2656c0 .0552-.0447.1-.1.1h-.8759c-.0553 0-.1-.0448-.1-.1v-1.7428h-1.5168v1.7428c0 .0552-.0448.1-.1.1h-.8789c-.0553 0-.1-.0448-.1-.1z"/></g></svg>