<svg fill="none" preserveAspectRatio="xMinYMid meet" viewBox="0 0 24 24" xmlns="http://www.w3.org/2000/svg"><g fill="#fff"><g clip-rule="evenodd" fill-rule="evenodd"><path d="m4.5 5c0-1.38071 1.11929-2.5 2.5-2.5h6.1716c.663 0 1.2989.26339 1.7677.73223l3.8285 3.82843c.4688.46884.7322 1.10473.7322 1.76777v10.17157c0 1.3807-1.1193 2.5-2.5 2.5h-10c-1.38071 0-2.5-1.1193-2.5-2.5 0-.2761.22386-.5.5-.5s.5.2239.5.5c0 .8284.67157 1.5 1.5 1.5h10c.8284 0 1.5-.6716 1.5-1.5v-10c0-.27614-.2239-.5-.5-.5h-3c-.8284 0-1.5-.67157-1.5-1.5v-3c0-.27614-.2239-.5-.5-.5h-6c-.82843 0-1.5.67157-1.5 1.5v6c0 .2761-.22386.5-.5.5s-.5-.2239-.5-.5zm10 2v-2.79289l3.2929 3.29289h-2.7929c-.2761 0-.5-.22386-.5-.5z"/><path d="m3.40694 12.6533c-.06618 0-.11983.0537-.11983.1198v4.2595c0 .0662.05365.1199.11983.1199h.87764c.06618 0 .11982-.0537.11982-.1199v-1.3985h.66128c.34612 0 .64972-.0566.90698-.1746.25864-.1178.46095-.2875.6015-.5102.14066-.2229.20865-.4838.20865-.7778 0-.2905-.06819-.5532-.20732-.7844-.13951-.2318-.34067-.4115-.59889-.5397-.25832-.1311-.56339-.1941-.91092-.1941zm1.65874 2.0566h-.66128v-1.1294h.66128c.15276 0 .26508.0302.34572.081.08612.0542.14684.1241.18553.2107.04149.093.06273.1942.06273.3052 0 .1088-.02116.2026-.0609.2837-.03673.0749-.09477.1351-.17944.1808-.08265.0426-.19814.068-.35364.068z"/><path d="m8.6764 17.1525h.1994c.30204 0 .58119-.0503.83501-.1522.25456-.1035.47449-.2502.65829-.4402.1856-.1919.3277-.4206.4267-.6844.1013-.2649.1511-.5555.1511-.8704v-.2019c0-.3166-.0497-.6073-.1512-.8705-.0989-.2637-.241-.4924-.4266-.6843-.1855-.1917-.4053-.3385-.6582-.4401-.25193-.1041-.52789-.1552-.82632-.1552h-1.31646c-.06618 0-.11983.0537-.11983.1198v4.2595c0 .0662.05365.1199.11983.1199h.32192v.0025h.78636zm-1.22811-4.3794.00176.0117v.0037zm1.1173 3.4551v-2.6477h.31899c.15588 0 .28887.0268.40155.0773l.00138.0006c.11229.0486.20666.1211.28429.219.07786.0982.13867.2222.18006.3752l.00036.0012c.04314.1528.0657.3335.0657.5438v.2077c0 .2738-.03983.5013-.11437.6841-.07219.1814-.17679.3136-.31161.4036-.13451.0879-.30438.1352-.51614.1352z"/></g><path d="m11.6446 12.7731c0-.0661.0536-.1198.1198-.1198h2.7792c.0662 0 .1198.0537.1198.1198v.6875c0 .0662-.0536.1199-.1198.1199h-1.7817v.8925h1.5769c.0662 0 .1199.0536.1199.1198v.6845c0 .0662-.0537.1199-.1199.1199h-1.5769v1.6354c0 .0662-.0537.1199-.1198.1199h-.8777c-.0662 0-.1198-.0537-.1198-.1199z"/></g></svg>