<svg fill="none" preserveAspectRatio="xMinYMid meet" viewBox="0 0 24 24" xmlns="http://www.w3.org/2000/svg"><g fill="#fff"><g clip-rule="evenodd" fill-rule="evenodd"><path d="m4.5 5c0-1.38071 1.11929-2.5 2.5-2.5h6.1716c.663 0 1.2989.26339 1.7677.73223l3.8285 3.82843c.4688.46884.7322 1.10473.7322 1.76777v10.17157c0 1.3807-1.1193 2.5-2.5 2.5h-10c-1.38071 0-2.5-1.1193-2.5-2.5 0-.2761.22386-.5.5-.5s.5.2239.5.5c0 .8284.67157 1.5 1.5 1.5h10c.8284 0 1.5-.6716 1.5-1.5v-10c0-.27614-.2239-.5-.5-.5h-3c-.8284 0-1.5-.67157-1.5-1.5v-3c0-.27614-.2239-.5-.5-.5h-6c-.82843 0-1.5.67157-1.5 1.5v6c0 .2761-.22386.5-.5.5s-.5-.2239-.5-.5zm10 2v-2.79289l3.2929 3.29289h-2.7929c-.2761 0-.5-.22386-.5-.5z"/><path d="m3.28076 12.7343c0-.0553.04477-.1.1-.1h1.66113c.34569 0 .64798.0626.90327.1922.25553.1269.454.3044.59159.533.13727.228.20475.4874.20475.7752 0 .2912-.06732.5486-.20586.7682-.13845.2194-.33788.3868-.59377.5034-.25441.1167-.55546.1731-.89998.1731h-.68222v1.4205c0 .0552-.04477.1-.1.1h-.87891c-.05523 0-.1-.0448-.1-.1zm1.07891 1.9595h.68222c.15778 0 .27695-.0257.36349-.0704.08824-.0476.14953-.1108.18832-.19.04131-.0842.06304-.1812.06304-.2929 0-.1137-.0218-.2179-.06456-.3137-.04043-.0906-.10396-.1635-.19341-.2198-.08487-.0534-.2014-.0842-.35688-.0842h-.68222z"/><path d="m7.44795 12.7343c0-.0553.04477-.1.1-.1h1.66113c.34569 0 .64797.0626.90322.1922.2556.1269.454.3044.5916.533.1373.228.2048.4874.2048.7752 0 .2912-.0673.5486-.2059.7682-.1384.2194-.3379.3868-.5937.5034-.25445.1167-.5555.1731-.90002.1731h-.68222v1.4205c0 .0552-.04478.1-.1.1h-.87891c-.05523 0-.1-.0448-.1-.1zm1.07891 1.9595h.68222c.15779 0 .27695-.0257.36349-.0704.08824-.0476.14953-.1108.18832-.19.04131-.0842.06304-.1812.06304-.2929 0-.1137-.0218-.2179-.06456-.3137-.04043-.0906-.10396-.1635-.19341-.2198-.08487-.0534-.2014-.0842-.35688-.0842h-.68222z"/></g><path d="m11.3544 12.7343c0-.0553.0448-.1.1-.1h3.4805c.0552 0 .1.0447.1.1v.6885c0 .0552-.0448.1-.1.1h-1.2125v3.4771c0 .0552-.0448.1-.1.1h-.876c-.0552 0-.1-.0448-.1-.1v-3.4771h-1.192c-.0552 0-.1-.0448-.1-.1z"/></g></svg>