<svg fill="none" preserveAspectRatio="xMinYMid meet" viewBox="0 0 24 24" xmlns="http://www.w3.org/2000/svg"><g fill="#fff"><path clip-rule="evenodd" d="m4.5 5c0-1.38071 1.11929-2.5 2.5-2.5h6.1716c.663 0 1.2989.26339 1.7677.73223l3.8285 3.82843c.4688.46884.7322 1.10473.7322 1.76777v10.17157c0 1.3807-1.1193 2.5-2.5 2.5h-10c-1.38071 0-2.5-1.1193-2.5-2.5 0-.2761.22386-.5.5-.5s.5.2239.5.5c0 .8284.67157 1.5 1.5 1.5h10c.8284 0 1.5-.6716 1.5-1.5v-10c0-.27614-.2239-.5-.5-.5h-3c-.8284 0-1.5-.67157-1.5-1.5v-3c0-.27614-.2239-.5-.5-.5h-6c-.82843 0-1.5.67157-1.5 1.5v6c0 .2761-.22386.5-.5.5s-.5-.2239-.5-.5zm10 2v-2.79289l3.2929 3.29289h-2.7929c-.2761 0-.5-.22386-.5-.5z" fill-rule="evenodd"/><path d="m9.08018 12.5757c-.23865 0-.46017.0293-.66386.089-.20112.0595-.37832.1455-.52958.2588-.15168.1118-.27102.2478-.35645.4078-.08666.1603-.12922.338-.12922.5309 0 .1973.03997.3752.12316.5306l.00053.001c.08283.1508.19506.2827.33544.3959l.00127.001c.13971.1089.29934.2038.47752.2848.17737.0797.36515.1516.56176.2151.17156.054.3087.1052.41271.1535.10466.0486.18046.0957.23131.14l.00142.0012c.04936.0414.07816.0836.09267.1258l.00138.0036c.01828.0472.02841.1031.02841.169 0 .0777-.01953.1447-.05743.2038l-.00098.0016c-.03398.0552-.09001.103-.17483.1396-.08075.0355-.19076.056-.33473.056-.1182 0-.2254-.012-.32209-.0353-.09182-.0225-.16888-.0582-.23296-.1057-.05969-.0457-.10709-.1061-.14173-.1836-.03376-.0756-.05283-.1731-.05283-.2961 0-.0553-.04477-.1-.1-.1h-.88183c-.05523 0-.1.0447-.1.1 0 .2542.0528.4799.16241.6733.1071.189.25082.3452.42953.4672.17738.1196.37473.2092.58971.2686.21343.0569.4301.0854.64979.0854.24176 0 .4629-.0272.66256-.0828.19948-.0555.37406-.1375.52206-.2475.1489-.1106.264-.2468.3435-.4081.08-.162.1188-.3435.1188-.5423 0-.1873-.0323-.3585-.0992-.5117-.0665-.1523-.1649-.2875-.2936-.4057-.1274-.117-.2841-.2206-.46838-.3118-.18174-.0908-.39113-.1718-.62754-.2433-.1361-.0422-.25475-.085-.35631-.1283-.10082-.0429-.18316-.0876-.2483-.1333-.06383-.0449-.10797-.0902-.13642-.1347-.02489-.0419-.03787-.0891-.03787-.1439 0-.0769.02006-.1433.05938-.2023l.00064-.001c.03832-.0589.09785-.109.18512-.1476l.00145-.0007c.08458-.039.19614-.0611.33896-.0611.14738 0 .26158.026.34654.0708.08927.0463.15171.1077.19205.1837l.0012.0022c.04304.0765.06626.1684.06626.2791 0 .0552.04477.1.1.1h.87302c.0553 0 .1-.0448.1-.1 0-.272-.0703-.517-.2127-.7318-.1399-.2139-.3361-.3805-.58497-.5008-.25047-.1211-.54032-.1799-.86675-.1799z"/><g clip-rule="evenodd" fill-rule="evenodd"><path d="m3.38076 12.6343c-.05523 0-.1.0447-.1.1v4.2656c0 .0552.04477.1.1.1h.87891c.05523 0 .1-.0448.1-.1v-1.4205h.68222c.34452 0 .64557-.0564.89998-.1731.25589-.1166.45532-.284.59377-.5034.13854-.2196.20586-.477.20586-.7682 0-.2878-.06748-.5472-.20475-.7752-.13759-.2286-.33605-.4061-.59159-.533-.25529-.1296-.55758-.1922-.90327-.1922zm1.66113 2.0595h-.68222v-1.171h.68222c.15548 0 .27201.0308.35688.0842.08945.0563.15298.1292.19341.2198.04276.0958.06456.2.06456.3137 0 .1117-.02173.2087-.06304.2929-.03879.0792-.10008.1424-.18832.19-.08654.0447-.20571.0704-.36349.0704z"/><path d="m12.6392 17.1559h.1996c.3022 0 .5816-.0503.8356-.1523.2547-.1036.4748-.2503.6588-.4405.1858-.1921.3279-.421.427-.685.1014-.2651.1512-.5559.1512-.871v-.202c0-.3169-.0497-.6079-.1513-.8712-.099-.264-.2412-.4928-.4269-.6849-.1857-.1918-.4056-.3387-.6587-.4404-.2521-.1041-.5283-.1553-.827-.1553h-1.3174c-.0663 0-.1199.0537-.1199.1199v4.2628c0 .0662.0536.1199.1199.1199h.3221v.0025h.787zm-1.229-4.3827.0017.0117v.0037zm1.1181 3.4578v-2.6498h.3192c.156 0 .2891.0268.4019.0773l.0014.0006c.1123.0487.2068.1213.2845.2192.0779.0983.1387.2224.1802.3755l.0003.0012c.0432.1529.0658.3338.0658.5442v.2079c0 .274-.0399.5017-.1145.6846-.0722.1815-.1769.3139-.3118.4039-.1346.088-.3046.1354-.5165.1354z"/></g></g></svg>