<svg fill="none" preserveAspectRatio="xMinYMid meet" viewBox="0 0 24 24" xmlns="http://www.w3.org/2000/svg"><g fill="#fff"><g clip-rule="evenodd" fill-rule="evenodd"><path d="m4.5 5c0-1.38071 1.11929-2.5 2.5-2.5h6.1716c.663 0 1.2989.26339 1.7677.73223l3.8285 3.82843c.4688.46884.7322 1.10473.7322 1.76777v10.17157c0 1.3807-1.1193 2.5-2.5 2.5h-10c-1.38071 0-2.5-1.1193-2.5-2.5 0-.2761.22386-.5.5-.5s.5.2239.5.5c0 .8284.67157 1.5 1.5 1.5h10c.8284 0 1.5-.6716 1.5-1.5v-10c0-.27614-.2239-.5-.5-.5h-3c-.8284 0-1.5-.67157-1.5-1.5v-3c0-.27614-.2239-.5-.5-.5h-6c-.82843 0-1.5.67157-1.5 1.5v6c0 .2761-.22386.5-.5.5s-.5-.2239-.5-.5zm10 2v-2.79289l3.2929 3.29289h-2.7929c-.2761 0-.5-.22386-.5-.5z"/><path d="m13.2718 12.6364h-.1222c-.4717-.0065-1.1608-.0124-1.3235 0h-.0369c-.0641 0-.1164.0504-.1194.1137l-.001.0061-.0004.0047.0012 4.2445c0 .0661.0535.1196.1196.1196h.183l-.0002.002h1.0693l-.0005-.002h.374c.3393 0 .6338-.0481.8798-.1489.2493-.1015.4443-.2553.5779-.4635.1334-.21.197-.4635.197-.7534 0-.1889-.0409-.3674-.123-.5339-.0833-.1732-.2165-.3114-.3936-.4152-.0072-.0043-.0144-.0086-.0217-.0127.1328-.0925.2367-.2062.3083-.342l.0128-.0244c.0752-.1411.1223-.3105.1223-.512 0-.8965-.6876-1.2447-1.4974-1.277-.0666-.0037-.1351-.0056-.2054-.0056zm1.2594 2.161c-.0123.0086-.0248.017-.0376.0251.0122-.0083.0244-.0169.0364-.0258zm-1.5412 1.405h-.2057v-.9387h.4905l.0151-.0002.0165-.0003c.1607-.0036.6065-.0135.6455.4115.0011.0112.0027.022.0048.0322.0007.0141.0011.0286.0011.0435 0 .0937-.0196.1718-.0555.2376-.0338.062-.0868.114-.1653.155-.0752.0374-.1804.0599-.3222.0599zm.6552-1.7839-.0205-.0517c.0841-.0351.1386-.0815.1736-.1367.0379-.0589.0602-.1352.0602-.2337 0-.1181-.0227-.2012-.0579-.2581l-.0011-.0018c-.032-.0537-.0841-.0971-.1675-.1264-.0855-.0307-.2044-.0487-.3602-.0487h-.4875v-.0021h-.0045v.0021h.0045v.857l.55.0001c.122-.0047.2181-.0232.2904-.0517l-.0018.0007z"/><path d="m3.39884 12.6364c-.06602 0-.11954.0536-.11954.1196v4.2494c0 .0661.05352.1196.11954.1196h.87557c.06603 0 .11955-.0535.11955-.1196v-1.3952h.65971c.34531 0 .64819-.0564.90485-.1742.25803-.1175.45987-.2868.60008-.509.14033-.2224.20816-.4826.20816-.7759 0-.2899-.06803-.5519-.20683-.7826-.13919-.2312-.33987-.4105-.59748-.5384-.25771-.1308-.56207-.1937-.90878-.1937zm1.65483 2.0518h-.65971v-1.1268h.65971c.1524 0 .26446.0302.34491.0809.08592.054.1465.1237.1851.2102.04139.0927.06258.1937.06258.3044 0 .1086-.02111.2021-.06076.283-.03665.0748-.09455.1349-.17902.1804-.08245.0425-.19767.0679-.35281.0679z"/></g><path d="m7.39273 12.756c0-.066.05353-.1196.11955-.1196h.87557c.06602 0 .11954.0536.11954.1196v2.8077c0 .1793.02855.3148.07786.4135.04953.099.11802.1679.20591.2119.09515.0467.21149.0722.3526.0722.14587 0 .26142-.0258.35147-.0716.08772-.0439.1558-.1127.20344-.2111l.00067-.0014c.04931-.0987.07787-.2342.07787-.4135v-2.8077c0-.066.05352-.1196.11954-.1196h.87265c.066 0 .1195.0536.1195.1196v2.8077c0 .3438-.0737.6422-.2281.889-.1508.2442-.3607.4281-.6265.5504-.26153.1213-.55929.1802-.89054.1802-.33144 0-.63096-.059-.89605-.18-.2658-.1224-.47681-.3063-.62954-.5502-.15233-.2468-.22544-.5457-.22544-.8894z"/></g></svg>