<svg fill="none" preserveAspectRatio="xMinYMid meet" viewBox="0 0 24 24" xmlns="http://www.w3.org/2000/svg"><g clip-rule="evenodd" fill="#fff" fill-rule="evenodd"><path d="m12 12.3c-.9389 0-1.7.7611-1.7 1.7s.7611 1.7 1.7 1.7 1.7-.7611 1.7-1.7-.7611-1.7-1.7-1.7zm-.7 1.7c0-.3866.3134-.7.7-.7s.7.3134.7.7-.3134.7-.7.7-.7-.3134-.7-.7z"/><path d="m12 9.5c-.718 0-1.3.582-1.3 1.3 0 .0077-.0011.0113-.0013.0121-.0003.0009-.0006.0014-.001.002-.0012.0016-.0052.006-.0134.0094s-.0143.0032-.0162.0028l-.0021-.0007c-.0008-.0004-.0041-.0022-.0095-.0076-.5077-.5077-1.33079-.5077-1.83848 0-.50768.5077-.50768 1.3308 0 1.8385.00543.0054.0072.0087.00759.0095.00029.0005.00046.001.00058.0014-.00005-.0003.00006.0002 0 0 .00033.0019.00076.0087-.00264.0169s-.00785.0122-.00945.0134c-.00059.0004-.00109.0007-.00203.001-.00081.0002-.0044.0013-.01207.0013-.71797 0-1.3.582-1.3 1.3s.58203 1.3 1.3 1.3c.00767 0 .01126.0011.01207.0013.00094.0003.00144.0006.00203.001.0016.0012.00605.0052.00945.0134.00339.0082.00313.0143.00279.0162-.00012.0007-.00028.0012-.00073.0021-.00039.0008-.00217.0041-.00759.0095-.50768.5077-.50768 1.3308 0 1.8385s1.33078.5077 1.83848 0c.0054-.0054.0087-.0072.0095-.0076.0009-.0005.0014-.0006.0021-.0007.0019-.0004.008-.0006.0162.0028s.0122.0078.0134.0094l.0006.0011.0004.0009c.0002.0008.0013.0044.0013.0121 0 .718.582 1.3 1.3 1.3s1.3-.582 1.3-1.3c0-.0077.0011-.0113.0013-.0121.0003-.0009.0006-.0014.001-.002.0012-.0016.0052-.006.0134-.0094s.0143-.0032.0162-.0028c.0007.0001.0012.0002.0021.0007.0008.0004.0041.0022.0095.0076.5077.5077 1.3308.5077 1.8385 0s.5077-1.3308 0-1.8385c-.0054-.0054-.0072-.0087-.0076-.0095-.0005-.0009-.0006-.0014-.0007-.0021-.0004-.0019-.0006-.008.0028-.0162s.0078-.0122.0094-.0134c.0006-.0004.0011-.0007.002-.001.0008-.0002.0044-.0013.0121-.0013.718 0 1.3-.582 1.3-1.3s-.582-1.3-1.3-1.3c-.0077 0-.0113-.0011-.0121-.0013-.0009-.0003-.0014-.0006-.002-.001-.0016-.0012-.006-.0052-.0094-.0134s-.0032-.0143-.0028-.0162c.0001-.0007.0002-.0012.0007-.0021.0004-.0008.0022-.0041.0076-.0095.5077-.5077.5077-1.3308 0-1.8385s-1.3308-.5077-1.8385 0c-.0054.0054-.0087.0072-.0095.0076-.0009.0005-.0014.0006-.0021.0007-.0019.0004-.008.0006-.0162-.0028s-.0122-.0078-.0134-.0094c-.0004-.0006-.0007-.0011-.001-.002-.0002-.0008-.0013-.0044-.0013-.0121 0-.718-.582-1.3-1.3-1.3zm-.3 1.3c0-.1657.1343-.3.3-.3s.3.1343.3.3c0 .9136 1.1046 1.3711 1.7506.7251.1172-.1171.3071-.1171.4243 0 .1171.1172.1171.3071 0 .4243-.646.646-.1885 1.7506.7251 1.7506.1657 0 .3.1343.3.3s-.1343.3-.3.3c-.9136 0-1.3711 1.1046-.7251 1.7506.1171.1172.1171.3071 0 .4243-.1172.1171-.3071.1171-.4243 0-.646-.646-1.7506-.1885-1.7506.7251 0 .1657-.1343.3-.3.3s-.3-.1343-.3-.3c0-.9136-1.1046-1.3711-1.75061-.7251-.11715.1171-.3071.1171-.42426 0-.11716-.1172-.11716-.3071 0-.4243.64607-.646.18847-1.7506-.72513-1.7506-.16569 0-.3-.1343-.3-.3s.13431-.3.3-.3c.9136 0 1.3712-1.1046.72513-1.7506-.11716-.1172-.11716-.3071 0-.4243.11716-.1171.30711-.1171.42426 0 .64601.646 1.75061.1885 1.75061-.7251z"/><path d="m19.5 19v-10.17157c0-.66304-.2634-1.29893-.7322-1.76777l-3.8285-3.82843c-.4688-.46884-1.1047-.73223-1.7677-.73223h-6.1716c-1.38071 0-2.5 1.11929-2.5 2.5v14c0 1.3807 1.11929 2.5 2.5 2.5h10c1.3807 0 2.5-1.1193 2.5-2.5zm-12.5-15.5c-.82843 0-1.5.67157-1.5 1.5v14c0 .8284.67157 1.5 1.5 1.5h10c.8284 0 1.5-.6716 1.5-1.5v-10c0-.27614-.2239-.5-.5-.5h-3c-.8284 0-1.5-.67157-1.5-1.5v-3c0-.27614-.2239-.5-.5-.5zm10.7929 4-3.2929-3.29289v2.79289c0 .27614.2239.5.5.5z"/></g></svg>