<svg fill="none" preserveAspectRatio="xMinYMid meet" viewBox="0 0 24 24" xmlns="http://www.w3.org/2000/svg"><g fill="#fff"><path clip-rule="evenodd" d="m12.5677 12.5757c-.2387 0-.4602.0293-.6639.089-.2011.0595-.3783.1455-.5296.2588-.1516.1118-.271.2477-.3564.4078-.0867.1603-.1292.338-.1292.5309 0 .1973.0399.3752.1231.5306l.0006.001c.0828.1508.195.2827.3354.3959l.0013.001c.1397.1089.2993.2038.4775.2848.1774.0797.3651.1516.5618.2151.1715.054.3086.1052.4127.1535.1046.0486.1804.0957.2313.14l.0014.0012c.0494.0414.0781.0836.0927.1258l.0013.0036c.0183.0472.0285.1031.0285.169 0 .0777-.0196.1447-.0575.2038l-.001.0016c-.0339.0552-.09.103-.1748.1396-.0807.0355-.1907.056-.3347.056-.1182 0-.2254-.012-.3221-.0353-.0918-.0225-.1689-.0582-.233-.1057-.0597-.0457-.1071-.1061-.1417-.1836-.0338-.0756-.0528-.1731-.0528-.2961 0-.0553-.0448-.1-.1-.1h-.8819c-.0552 0-.1.0447-.1.1 0 .2542.0528.4799.1624.6733.1072.189.2509.3452.4296.4672.1774.1196.3747.2092.5897.2686.2134.0569.4301.0854.6498.0854.2417 0 .4629-.0272.6625-.0828.1995-.0555.3741-.1375.5221-.2475.1489-.1106.264-.2468.3435-.4081.08-.162.1188-.3435.1188-.5423 0-.1873-.0323-.3585-.0992-.5117-.0665-.1523-.1649-.2875-.2936-.4057-.1274-.117-.2841-.2206-.4685-.3118-.1817-.0908-.391-.1718-.6274-.2433-.1361-.0422-.2548-.085-.3563-.1283-.1009-.0429-.1832-.0876-.2483-.1333-.0639-.0449-.108-.0902-.1364-.1347-.0249-.0419-.0379-.0891-.0379-.1439 0-.0769.02-.1433.0594-.2023l.0006-.001c.0383-.0589.0978-.109.1851-.1476l.0015-.0007c.0845-.039.1961-.0611.3389-.0611.1474 0 .2616.026.3466.0708.0892.0463.1517.1077.192.1837l.0012.0022c.0431.0765.0663.1685.0663.2791 0 .0552.0448.1.1.1h.873c.0553 0 .1-.0448.1-.1 0-.272-.0703-.517-.2127-.7318-.1399-.2139-.3361-.3805-.585-.5008-.2504-.1211-.5403-.1799-.8667-.1799zm-1.7079 3.1883c-.002-.0327-.003-.066-.003-.0999h.0999-.0999l-.0001.0999z" fill-rule="evenodd"/><path d="m3.09365 12.6343c-.03586 0-.06897.0192-.08678.0503-.01782.0311-.01761.0694.00055.1003l1.21232 2.0644-1.24434 2.0996c-.01832.0309-.01865.0693-.00086.1005s.05096.0505.08689.0505h1.01953c.03662 0 .07031-.02.08783-.0522l.73834-1.3562.73834 1.3562c.01751.0322.05121.0522.08783.0522h1.01367c.03591 0 .06907-.0193.08686-.0504.0178-.0312.0175-.0696-.00078-.1005l-1.24153-2.0997 1.20951-2.0645c.01812-.0309.0183-.0692.00048-.1002-.01782-.0311-.05092-.0503-.08676-.0503h-1.00489c-.03676 0-.07056.0201-.08801.0525l-.71472 1.3251-.71472-1.3251c-.01745-.0324-.05125-.0525-.08802-.0525z"/><path d="m7.48936 12.6343c-.05523 0-.1.0447-.1.1v4.2656c0 .0552.04477.1.1.1h2.74214c.0553 0 .1-.0448.1-.1v-.6855c0-.0553-.0447-.1-.1-.1h-1.76324v-3.4801c0-.0553-.04477-.1-.1-.1z"/><path clip-rule="evenodd" d="m7 2.5c-1.38071 0-2.5 1.11929-2.5 2.5v6c0 .2761.22386.5.5.5s.5-.2239.5-.5v-6c0-.82843.67157-1.5 1.5-1.5h6c.2761 0 .5.22386.5.5v3c0 .82843.6716 1.5 1.5 1.5h3c.2761 0 .5.22386.5.5v10c0 .8284-.6716 1.5-1.5 1.5h-10c-.82843 0-1.5-.6716-1.5-1.5 0-.2761-.22386-.5-.5-.5s-.5.2239-.5.5c0 1.3807 1.11929 2.5 2.5 2.5h10c1.3807 0 2.5-1.1193 2.5-2.5v-10.17157c0-.66304-.2634-1.29893-.7322-1.76777l-3.8285-3.82843c-.4688-.46884-1.1047-.73223-1.7677-.73223zm7.5 1.70711v2.79289c0 .27614.2239.5.5.5h2.7929z" fill-rule="evenodd"/></g></svg>