<svg fill="none" preserveAspectRatio="xMinYMid meet" viewBox="0 0 24 24" xmlns="http://www.w3.org/2000/svg"><g fill="#fff"><path d="m12.5 17.2488c0 .2761-.2239.5-.5.5s-.5-.2239-.5-.5c0-.2762.2239-.5.5-.5s.5.2238.5.5z"/><path d="m10.4907 12.0147c.144-.7316.7658-1.2632 1.4892-1.2632.8252 0 1.5202.6942 1.5202 1.5833 0 .4124-.2107.7154-.5609.9827-.2787.2127-.5857.3613-.885.5062-.1025.0496-.2042.0989-.3035.15-.1663.0858-.2708.2573-.2708.4444v.8334c0 .2761.2238.5.5.5.2761 0 .5-.2239.5-.5v-.5216c.3056-.1477.7182-.352 1.0659-.6174.4915-.3751.9543-.9401.9543-1.7777 0-1.4121-1.1139-2.58334-2.5202-2.58334-1.2313 0-2.24004.89984-2.47039 2.07014-.05333.2709.12308.5338.39402.5871.27097.0533.53377-.1231.58717-.394z"/><path clip-rule="evenodd" d="m19.5 19c0 1.3807-1.1193 2.5-2.5 2.5h-10c-1.38071 0-2.5-1.1193-2.5-2.5v-14c0-1.38071 1.11929-2.5 2.5-2.5h6.1716c.663 0 1.2989.26339 1.7677.73223l3.8285 3.82843c.4688.46884.7322 1.10473.7322 1.76777zm-14-14c0-.82843.67157-1.5 1.5-1.5h6c.2761 0 .5.22386.5.5v3c0 .82843.6716 1.5 1.5 1.5h3c.2761 0 .5.22386.5.5v10c0 .8284-.6716 1.5-1.5 1.5h-10c-.82843 0-1.5-.6716-1.5-1.5zm9-.79289 3.2929 3.29289h-2.7929c-.2761 0-.5-.22386-.5-.5z" fill-rule="evenodd"/></g></svg>