<svg fill="none" preserveAspectRatio="xMinYMid meet" viewBox="0 0 24 24" xmlns="http://www.w3.org/2000/svg"><g clip-rule="evenodd" fill="#fff" fill-rule="evenodd"><path d="m10.9136 11.5794c.1694-.0847.3721-.0664.5236.0472l2.6667 2c.1259.0944.2.2426.2.4s-.0741.3056-.2.4l-2.6667 2c-.1515.1136-.3542.1319-.5236.0472s-.2764-.2578-.2764-.4472v-4c0-.1894.107-.3625.2764-.4472zm.7236 3.4472 1.3333-1-1.3333-1z"/><path d="m12 9.02661c-2.76142 0-5 2.23859-5 4.99999s2.23858 5 5 5c2.7614 0 5-2.2386 5-5s-2.2386-4.99999-5-4.99999zm-4 4.99999c0-2.2091 1.79086-4 4-4 2.2091 0 4 1.7909 4 4 0 2.2092-1.7909 4-4 4-2.20914 0-4-1.7908-4-4z"/><path d="m19.5 19c0 1.3807-1.1193 2.5-2.5 2.5h-10c-1.38071 0-2.5-1.1193-2.5-2.5v-14c0-1.38071 1.11929-2.5 2.5-2.5h6.1716c.663 0 1.2989.26339 1.7677.73223l3.8285 3.82843c.4688.46884.7322 1.10473.7322 1.76777zm-14-14c0-.82843.67157-1.5 1.5-1.5h6c.2761 0 .5.22386.5.5v3c0 .82843.6716 1.5 1.5 1.5h3c.2761 0 .5.22386.5.5v10c0 .8284-.6716 1.5-1.5 1.5h-10c-.82843 0-1.5-.6716-1.5-1.5zm9-.79289 3.2929 3.29289h-2.7929c-.2761 0-.5-.22386-.5-.5z"/></g></svg>