<svg fill="none" preserveAspectRatio="xMinYMid meet" viewBox="0 0 24 24" xmlns="http://www.w3.org/2000/svg"><g fill="#fff"><path clip-rule="evenodd" d="m5.5 5c0-.82843.67157-1.5 1.5-1.5h6c.2761 0 .5.22386.5.5v3c0 .82843.6716 1.5 1.5 1.5h3c.2761 0 .5.22386.5.5v2.5c0 .2761.2239.5.5.5s.5-.2239.5-.5v-2.67157c0-.66304-.2634-1.29893-.7322-1.76777l-3.8285-3.82843c-.4688-.46884-1.1047-.73223-1.7677-.73223h-6.1716c-1.38071 0-2.5 1.11929-2.5 2.5v14c0 1.3807 1.11929 2.5 2.5 2.5h3.5c.2761 0 .5-.2239.5-.5s-.2239-.5-.5-.5h-3.5c-.82843 0-1.5-.6716-1.5-1.5zm9 2v-2.79289l3.2929 3.29289h-2.7929c-.2761 0-.5-.22386-.5-.5z" fill-rule="evenodd"/><path clip-rule="evenodd" d="m20.2126 13.5056c-.704-.704-1.8453-.704-2.5492 0l-4.2368 4.2368c-.0549.0548-.0963.1218-.1208.1954l-.921 2.7631c-.0599.1797-.0132.3778.1207.5117.134.1339.332.1807.5117.1208l2.7631-.9211c.0737-.0245.1406-.0659.1955-.1208l4.2368-4.2368c.7039-.7039.7039-1.8452 0-2.5491zm-1.8421.7071c.3134-.3135.8216-.3135 1.135 0 .3134.3134.3134.8215 0 1.1349l-4.1534 4.1534-1.7024.5675.5675-1.7025z" fill-rule="evenodd"/><path d="m8 10.5c-.27614 0-.5.2239-.5.5s.22386.5.5.5h8c.2761 0 .5-.2239.5-.5s-.2239-.5-.5-.5z"/><path d="m7.5 14c0-.2761.22386-.5.5-.5h6.5c.2761 0 .5.2239.5.5s-.2239.5-.5.5h-6.5c-.27614 0-.5-.2239-.5-.5z"/><path d="m8 16.5c-.27614 0-.5.2239-.5.5s.22386.5.5.5h3.5c.2761 0 .5-.2239.5-.5s-.2239-.5-.5-.5z"/></g></svg>