<svg height="16" preserveAspectRatio="xMinYMid meet" viewBox="0 0 80 16" width="80" xmlns="http://www.w3.org/2000/svg"><g fill="#fff"><path d="m25.4 1.5h3.5v1h-3.5zm-1 0h1v3h-1zm1 13v-4h-1v4h.5zm5-13h3v1h-3zm4.5 0h3v1h-3zm-10.5 4.5h1v3h-1zm42-4.5h3v1h-3zm-9 0h3v1h-3zm4.5 0h3v1h-3zm9 0h3v1h-3zm-22.5 0h3v1h-3zm4.5 0h3v1h-3zm-9 0h3v1h-3zm-4.5 0h3v1h-3zm-5.5 12h3v1h-3zm36 0h3v1h-3zm7.5 0h-3v1h3v-.5zm-12 0h3v1h-3zm10-12v1h2v2.5h1v-3.5zm-14.5 12h3v1h-3z"/><path d="m25 13.5h-.5v1h3.4v-1zm52.4-7h1v3h-1zm0 7.4v.6h1v-3.5h-1zm-39-.4h3v1h-3zm-9 0h3v1h-3zm13.5 0h3v1h-3zm13.5 0h3v1h-3zm-9 0h3v1h-3zm4.5 0h3v1h-3z"/><path d="m13 4 4 4-4 4m4-4h-14.2"/></g></svg>