<svg preserveAspectRatio="xMinYMid meet" viewBox="0 0 448 512" xmlns="http://www.w3.org/2000/svg"><path d="m288 64c0 17.7-14.3 32-32 32h-224c-17.7 0-32-14.3-32-32s14.3-32 32-32h224c17.7 0 32 14.3 32 32zm0 256c0 17.7-14.3 32-32 32h-224c-17.7 0-32-14.3-32-32s14.3-32 32-32h224c17.7 0 32 14.3 32 32zm-288-128c0-17.7 14.3-32 32-32h384c17.7 0 32 14.3 32 32s-14.3 32-32 32h-384c-17.7 0-32-14.3-32-32zm448 256c0 17.7-14.3 32-32 32h-384c-17.7 0-32-14.3-32-32s14.3-32 32-32h384c17.7 0 32 14.3 32 32z" fill="#fff"/></svg>