<svg preserveAspectRatio="xMinYMid meet" viewBox="0 0 512 512" xmlns="http://www.w3.org/2000/svg"><path d="m256 192-39.5-39.5c4.9-12.6 7.5-26.2 7.5-40.5 0-61.9-50.1-112-112-112s-112 50.1-112 112 50.1 112 112 112c14.3 0 27.9-2.7 40.5-7.5l39.5 39.5-39.5 39.5c-12.6-4.9-26.2-7.5-40.5-7.5-61.9 0-112 50.1-112 112s50.1 112 112 112 112-50.1 112-112c0-14.3-2.7-27.9-7.5-40.5l282.7-282.7c7.1-7.1 7.1-18.5 0-25.6-28.3-28.3-74.1-28.3-102.4 0zm22.6 150.6 118.2 118.2c28.3 28.3 74.1 28.3 102.4 0 7.1-7.1 7.1-18.5 0-25.6l-156.6-156.6zm-214.6-230.6a48 48 0 1 1 96 0 48 48 0 1 1 -96 0zm48 240a48 48 0 1 1 0 96 48 48 0 1 1 0-96z" fill="#fff"/></svg>