<svg fill="none" preserveAspectRatio="xMinYMid meet" viewBox="0 0 18 18" xmlns="http://www.w3.org/2000/svg"><g fill="#fff"><path d="m14.9992 3.80121c0-1.59031-1.2892-2.879518-2.8795-2.879518h-8.31806c-1.59032 0-2.879521 1.289208-2.879521 2.879518v10.39759c0 1.5903 1.289201 2.8795 2.879521 2.8795h8.31806c1.5903 0 2.8795-1.2892 2.8795-2.8795v-.8h-1.6v.8c0 .7067-.5728 1.2795-1.2795 1.2795h-3.61973v-12.95661h3.61973c.7067 0 1.2795.57286 1.2795 1.27952v.8h1.6z"/><path d="m14.1989 6.12048c-.4418 0-.8.35818-.8.8v1.27953h-1.2796c-.4418 0-.8.35817-.8.8s.3582.8.8.8h1.2796v1.27949c0 .4419.3582.8.8.8s.8-.3581.8-.8v-1.27949h1.2795c.4418 0 .8-.35817.8-.8s-.3582-.8-.8-.8h-1.2795v-1.27953c0-.44182-.3582-.8-.8-.8z"/></g></svg>