<svg fill="none" preserveAspectRatio="xMinYMid meet" viewBox="0 0 18 18" xmlns="http://www.w3.org/2000/svg"><g fill="#fff"><path d="m3.00101 3.80121c0-1.59031 1.2892-2.879518 2.87952-2.879518h8.31807c1.5903 0 2.8795 1.289208 2.8795 2.879518v10.39759c0 1.5903-1.2892 2.8795-2.8795 2.8795h-8.31807c-1.59032 0-2.87952-1.2892-2.87952-2.8795v-.8h1.6v.8c0 .7067.57286 1.2795 1.27952 1.2795h3.61974v-12.95661h-3.61974c-.70666 0-1.27952.57286-1.27952 1.27952v.8h-1.6z"/><path d="m3.80135 6.12048c.44183 0 .8.35818.8.8v1.27953h1.27957c.44182 0 .8.35817.8.8s-.35818.8-.8.8h-1.27957v1.27949c0 .4419-.35817.8-.8.8s-.8-.3581-.8-.8v-1.27949h-1.27947c-.44183 0-.800005-.35817-.800005-.8s.358175-.8.800005-.8h1.27947v-1.27953c0-.44182.35817-.8.8-.8z"/></g></svg>