<svg preserveAspectRatio="xMinYMid meet" viewBox="0 0 640 512" xmlns="http://www.w3.org/2000/svg"><path d="m9.4 9.4c12.5-12.5 32.7-12.5 45.2 0l105.4 105.3v-18.7c0-17.7 14.3-32 32-32s32 14.3 32 32v96c0 4.3-.9 8.5-2.4 12.2-1.6 3.7-3.8 7.3-6.9 10.3l-.1.1c-3.1 3-6.6 5.3-10.3 6.9-3.8 1.6-7.9 2.4-12.2 2.4h-96.1c-17.7 0-32-14.3-32-32s14.3-32 32-32h18.7l-105.3-105.3c-12.5-12.5-12.5-32.7 0-45.2zm246.6 246.6a64 64 0 1 1 128 0 64 64 0 1 1 -128 0zm-141.3 96h-18.7c-17.7 0-32-14.3-32-32s14.3-32 32-32h96 .1c8.8 0 16.7 3.6 22.5 9.3l.1.1c3 3.1 5.3 6.6 6.9 10.3 1.6 3.8 2.4 7.9 2.4 12.2v96c0 17.7-14.3 32-32 32s-32-14.3-32-32v-18.6l-105.4 105.3c-12.5 12.5-32.8 12.5-45.3 0s-12.5-32.8 0-45.3zm301.3-256c0-17.7 14.3-32 32-32s32 14.3 32 32v18.7l105.4-105.3c12.5-12.5 32.8-12.5 45.3 0s12.5 32.8 0 45.3l-105.4 105.3h18.7c17.7 0 32 14.3 32 32s-14.3 32-32 32h-96c-8.8 0-16.8-3.6-22.6-9.3l-.1-.1c-3-3.1-5.3-6.6-6.9-10.3s-2.4-7.8-2.4-12.2v-.1zm109.3 256 105.3 105.4c12.5 12.5 12.5 32.8 0 45.3s-32.8 12.5-45.3 0l-105.3-105.4v18.7c0 17.7-14.3 32-32 32s-32-14.3-32-32v-96-.1c0-4.3.9-8.4 2.4-12.2 1.6-3.8 3.9-7.3 6.9-10.4 5.8-5.8 13.7-9.3 22.5-9.4h.1 96c17.7 0 32 14.3 32 32s-14.3 32-32 32h-18.6z" fill="#fff"/></svg>