<svg preserveAspectRatio="xMinYMid meet" viewBox="0 0 640 512" xmlns="http://www.w3.org/2000/svg"><path d="m32 64c17.7 0 32 14.3 32 32v320c0 17.7-14.3 32-32 32s-32-14.3-32-32v-320c0-17.7 14.3-32 32-32zm214.6 73.4c12.5 12.5 12.5 32.8 0 45.3l-41.3 41.3h229.5l-41.4-41.4c-12.5-12.5-12.5-32.8 0-45.3s32.8-12.5 45.3 0l96 96c12.5 12.5 12.5 32.8 0 45.3l-96 96c-12.5 12.5-32.8 12.5-45.3 0s-12.5-32.8 0-45.3l41.3-41.3h-229.5l41.4 41.4c12.5 12.5 12.5 32.8 0 45.3s-32.8 12.5-45.3 0l-96-96c-12.5-12.5-12.5-32.8 0-45.3l96-96c12.5-12.5 32.8-12.5 45.3 0zm393.4-41.4v320c0 17.7-14.3 32-32 32s-32-14.3-32-32v-320c0-17.7 14.3-32 32-32s32 14.3 32 32z" fill="#fff"/></svg>