<svg preserveAspectRatio="xMinYMid meet" viewBox="0 0 512 512" xmlns="http://www.w3.org/2000/svg"><path d="m160 0c-23.7 0-44.4 12.9-55.4 32h-56.6c-26.5 0-48 21.5-48 48v320c0 26.5 21.5 48 48 48h144v-272c0-44.2 35.8-80 80-80h48v-16c0-26.5-21.5-48-48-48h-56.6c-11-19.1-31.7-32-55.4-32zm112 128c-26.5 0-48 21.5-48 48v272 16c0 26.5 21.5 48 48 48h192c26.5 0 48-21.5 48-48v-220.1c0-12.7-5.1-24.9-14.1-33.9l-67.9-67.9c-9-9-21.2-14.1-33.9-14.1h-76.1zm-112-88a24 24 0 1 1 0 48 24 24 0 1 1 0-48z" fill="#fff"/></svg>