<svg preserveAspectRatio="xMinYMid meet" viewBox="0 0 640 512" xmlns="http://www.w3.org/2000/svg"><path d="m38.8 5.1c-10.4-8.2-25.5-6.3-33.7 4.1s-6.3 25.5 4.1 33.7l592 464c10.4 8.2 25.5 6.3 33.7-4.1s6.3-25.5-4.1-33.7l-141.5-110.9 90.5-90.5c56.5-56.5 56.5-148 0-204.5-50-50-128.8-56.5-186.3-15.4l-1.6 1.1c-14.4 10.3-17.7 30.3-7.4 44.6s30.3 17.7 44.6 7.4l1.6-1.1c32.1-22.9 76-19.3 103.8 8.6 31.5 31.5 31.5 82.5 0 114l-96 96-31.9-25c24.3-53.8 13.5-118.3-29.6-161.4-52.2-52.3-134.5-56.2-191.3-11.7zm200.2 156.9c30.1-14.9 67.7-9.9 92.8 15.3 20 20 27.5 48.3 21.7 74.5zm-122.4 25.9-56.4 56.4c-56.5 56.5-56.5 148 0 204.5 50 50 128.8 56.5 186.3 15.4l1.6-1.1c14.4-10.3 17.7-30.3 7.4-44.6s-30.3-17.7-44.6-7.4l-1.6 1.1c-32.1 22.9-76 19.3-103.8-8.6-31.5-31.6-31.5-82.6-0-114.1l61.8-61.8-50.6-39.9zm104.3 82.1c-2.1 39.8 12.2 80.1 42.2 110 38.9 38.9 94.4 51 143.6 36.3z" fill="#fff"/></svg>