<svg fill="none" preserveAspectRatio="xMinYMid meet" viewBox="0 0 19 18" xmlns="http://www.w3.org/2000/svg"><g fill="#fff"><path d="m8.02153 2.74968c0-.99412-.80588-1.800003-1.8-1.800003h-4.04193c-.99411 0-1.799997.805883-1.799997 1.800003v2.21677h1.599997v-2.21677c0-.11046.08955-.2.2-.2h4.04193c.11046 0 .2.08954.2.2v5.45028h-3.69011l.64985-.64986c.31242-.31242.31242-.81895 0-1.13137s-.81895-.31242-1.13137 0l-2.015586 2.01559c-.3124187.31242-.3124187.81895 0 1.13137l2.015586 2.01561c.31242.3124.81895.3124 1.13137 0s.31242-.819 0-1.1314l-.64995-.64994h3.69021v5.45034c0 .1105-.08954.2-.2.2h-4.04193c-.11045 0-.2-.0895-.2-.2v-2.2168h-1.599997v2.2168c0 .9941.805887 1.8 1.799997 1.8h4.04193c.99412 0 1.8-.8059 1.8-1.8z"/><path d="m10 2.74968c0-.99412.8059-1.800003 1.8-1.800003h4.042c.9941 0 1.8.805883 1.8 1.800003v2.21677h-1.6v-2.21677c0-.11046-.0896-.2-.2-.2h-4.042c-.1104 0-.2.08954-.2.2v5.45028h3.6902l-.6499-.64986c-.3124-.31242-.3124-.81895 0-1.13137s.819-.31242 1.1314 0l2.0156 2.01559c.3124.31242.3124.81895 0 1.13137l-2.0156 2.01561c-.3124.3124-.819.3124-1.1314 0s-.3124-.819 0-1.1314l.65-.64994h-3.6903v5.45034c0 .1105.0896.2.2.2h4.042c.1104 0 .2-.0895.2-.2v-2.2168h1.6v2.2168c0 .9941-.8059 1.8-1.8 1.8h-4.042c-.9941 0-1.8-.8059-1.8-1.8z"/></g></svg>