<svg height="16" preserveAspectRatio="xMinYMid meet" viewBox="0 0 16 16" width="16" xmlns="http://www.w3.org/2000/svg"><path d="m5 9.2v.3h3.7l.3-.3c-.3-.1-.5-.1-.6-.2s-.2-.5-.3-1l-1.4-8h-.3l-5.2 8.2c-.2.4-.4.6-.6.8-.1.1-.3.1-.6.2v.3h2.7v-.3c-.3 0-.6-.1-.7-.1s-.2-.2-.2-.4c0-.1 0-.2.1-.3s.1-.2.2-.3l.8-1.4h3c.1.5.1.9.1 1 .1.4.1.6.1.8s-.1.4-.2.5-.5.2-.9.2zm-1.8-3.1 2.1-3.4.5 3.4zm3.6 7.6c.3-.1.5-.2.6-.3.2-.1.4-.4.6-.7l5.2-8.2h.4l1.3 8c.1.5.2.9.3 1s.4.2.8.2v.3h-4.2v-.3c.4 0 .7-.1.9-.2s.2-.3.2-.6c0-.1 0-.4-.1-.8 0-.1-.1-.4-.1-1h-3l-.8 1.4c-.1.1-.1.2-.1.3s-.2.2-.2.4.1.3.2.4.4.1.7.1v.3h-2.7zm5.7-3.2-.5-3.4-2 3.4zm3.5 5.5h-11v-1h11z" fill="#888"/></svg>