<svg fill="none" preserveAspectRatio="xMinYMid meet" viewBox="0 0 14 16" xmlns="http://www.w3.org/2000/svg"><g fill="#fff"><path clip-rule="evenodd" d="m7.90023.567807c-.1673-.344425-.51659-.56307678-.8995-.56307678s-.73219.21865178-.8995.56307678l-4.75175 9.782493c-.24131.4968-.03421 1.0951.46257 1.3364s1.09512.0342 1.33642-.4625l.8128-1.67336h6.07893l.8128 1.67336c.2413.4967.8396.7038 1.3364.4625s.7039-.8396.4626-1.3364zm-.8995 2.725653 2.06799 4.25738h-4.13597z" fill-rule="evenodd"/><path d="m.012207 14.57c0-.3866.313401-.7.7-.7h12.576893c.3866 0 .7.3134.7.7v.7315c0 .3866-.3134.7-.7.7h-12.576893c-.386599 0-.7-.3134-.7-.7z"/></g></svg>