<svg preserveAspectRatio="xMinYMid meet" viewBox="0 0 384 512" xmlns="http://www.w3.org/2000/svg"><path d="m64 0c-35.3 0-64 28.7-64 64v384c0 35.3 28.7 64 64 64h256c35.3 0 64-28.7 64-64v-384c0-35.3-28.7-64-64-64zm32 64h192c17.7 0 32 14.3 32 32v32c0 17.7-14.3 32-32 32h-192c-17.7 0-32-14.3-32-32v-32c0-17.7 14.3-32 32-32zm32 160a32 32 0 1 1 -64 0 32 32 0 1 1 64 0zm-32 128a32 32 0 1 1 0-64 32 32 0 1 1 0 64zm-32 64c0-17.7 14.3-32 32-32h96c17.7 0 32 14.3 32 32s-14.3 32-32 32h-96c-17.7 0-32-14.3-32-32zm128-160a32 32 0 1 1 0-64 32 32 0 1 1 0 64zm32 64a32 32 0 1 1 -64 0 32 32 0 1 1 64 0zm64-64a32 32 0 1 1 0-64 32 32 0 1 1 0 64zm32 64a32 32 0 1 1 -64 0 32 32 0 1 1 64 0zm-32 128a32 32 0 1 1 0-64 32 32 0 1 1 0 64z" fill="#fff"/></svg>