<svg fill="none" preserveAspectRatio="xMinYMid meet" viewBox="0 0 19 18" xmlns="http://www.w3.org/2000/svg"><path clip-rule="evenodd" d="m8.88887 2.50117c-3.58921 0-6.49883 2.90962-6.49883 6.49883 0 3.5892 2.90962 6.4988 6.49883 6.4988.44183 0 .8.3582.8.8 0 .4419-.35817.8-.8.8-4.47286 0-8.098831-3.6259-8.098831-8.0988 0-4.47286 3.625971-8.098831 8.098831-8.098831 3.29873 0 6.13513 1.972121 7.39773 4.798301.1803.4034-.0007.87652-.4041 1.05674-.4034.18023-.8765-.00069-1.0567-.40409-1.0146-2.27096-3.2921-3.85095-5.93693-3.85095zm0 1.69883c.44183 0 .8.35817.8.8v3.66863l1.07083 1.07085c.3124.31242.3124.81892 0 1.13132-.3124.3125-.81894.3125-1.13135 0l-1.30517-1.30512c-.15003-.15003-.23431-.35351-.23431-.56568v-4c0-.44183.35817-.8.8-.8zm3.79983 6.3c0-1.21504.985-2.20001 2.2-2.20001s2.2.98497 2.2 2.20001v.5h.4002c.7732 0 1.4.6268 1.4 1.4v3.2c0 .7732-.6268 1.4-1.4 1.4h-5.2c-.7732 0-1.4-.6268-1.4-1.4v-3.2c0-.7732.6268-1.4 1.4-1.4h.3998zm3 0v.5h-1.6v-.5c0-.4418.3582-.80001.8-.80001s.8.35821.8.80001z" fill="#fff" fill-rule="evenodd"/></svg>