<svg preserveAspectRatio="xMinYMid meet" viewBox="0 0 576 512" xmlns="http://www.w3.org/2000/svg"><path d="m151.6 42.4c-6.1-6.6-14.6-10.4-23.6-10.4s-17.5 3.8-23.6 10.4l-88 96c-11.9 13-11.1 33.3 2 45.2s33.3 11.1 45.2-2l32.4-35.3v301.7c0 17.7 14.3 32 32 32s32-14.3 32-32v-301.7l32.4 35.4c11.9 13 32.2 13.9 45.2 2s13.9-32.2 2-45.2l-88-96zm168.4-10.4c-17.7 0-32 14.3-32 32s14.3 32 32 32h32c17.7 0 32-14.3 32-32s-14.3-32-32-32zm0 128c-17.7 0-32 14.3-32 32s14.3 32 32 32h96c17.7 0 32-14.3 32-32s-14.3-32-32-32zm0 128c-17.7 0-32 14.3-32 32s14.3 32 32 32h160c17.7 0 32-14.3 32-32s-14.3-32-32-32zm0 128c-17.7 0-32 14.3-32 32s14.3 32 32 32h224c17.7 0 32-14.3 32-32s-14.3-32-32-32z" fill="#fff"/></svg>