<svg height="12" preserveAspectRatio="xMinYMid meet" viewBox="0 0 12 12" width="12" xmlns="http://www.w3.org/2000/svg"><path d="m.83007812 0 1.64648438 2.8515625c-.00413.00253-.00759.00528-.011719.00781-.6841481.4199472-1.2524659.9183683-1.675781 1.4355494l-.001953-.00391c-.02008221.024179-.03341328.0480698-.0527345.0722693-.11612182.1468789-.22488582.2911709-.31445312.4375-.25846586.4222646-.41992188.8375124-.41992188 1.1992188 0 .5777635.37498263 1.2840809.9921875 1.953125.2164499-1.2344386 1.2415186-2.2225901 2.0605469-3.0019531.0006855-.0005145.00127-.00144.00195-.00195.07644-.057316.1660785-.1133854.25-.1699219.065932-.044307.1427638-.083856.2128906-.1269531l.3300812.5742156c-.0867071.243648-.1484374.5001007-.1484374.7734375 0 .9.7704406 1.6996094 1.5704406 2.0996094-.3124928-.0781232-.8730122-.1923561-1.1505188-.3203125l1.3828125 2.3945311c.1652317.013772.3302702.025391.4980469.025391.2341941 0 .4643909-.01653.6933594-.04297l1.0644531 1.843751h2.2910155l-1.3886718-2.4042969c1.2709014-.5645611 2.3015898-1.4483651 2.8671878-2.3085937.001.00257.0029.00524.0039.00781.02334-.035832.03292-.069737.05469-.1054688.09793-.1587294.17694-.3148157.240234-.46875.0293-.07114.06244-.1415534.08398-.2109375.01215-.03944.02367-.078407.0332-.1171875.033685-.1352039.056652-.2679971.056652-.3925756 0-1.6-2.8-4.1992187-6-4.1992188-.2617853 0-.5183202.02382-.7734375.056641-.066288.0086-.1315397.018649-.1972656.029297-.2473116.039769-.4926651.087857-.7304688.1542968l-1.1777343-2.041016zm6.16992188 3.9003906c.038317.011974.073478.028259.1113281.041016 1.5426476.5198925 2.6934615 1.6681726 2.8886719 2.0585934-.1709067.4272667-1.0750722 1.3633736-2.3320312 1.8769531l-.1015626-.1757812c.4606359-.434317.7343752-1.0398102.734375-1.7011719 0-.8812329-.4848456-1.6605096-1.2558593-2.0683594-.0164461-.0087014-.0282123-.0228952-.0449219-.03125z" fill="#fff"/></svg>