<svg preserveAspectRatio="xMinYMid meet" viewBox="0 0 512 512" xmlns="http://www.w3.org/2000/svg"><path d="m345 39.1 127.8 129.3c52.4 53 52.4 138.2 0 191.2l-112 113.3c-9.3 9.4-24.5 9.5-33.9.2s-9.5-24.5-.2-33.9l111.9-113.3c33.9-34.3 33.9-89.4 0-123.7l-127.7-129.3c-9.3-9.4-9.2-24.6.2-33.9s24.6-9.2 33.9.2zm-345 190.4v-149.5c0-26.5 21.5-48 48-48h149.5c17 0 33.3 6.7 45.3 18.7l168 168c25 25 25 65.5 0 90.5l-133.5 133.5c-25 25-65.5 25-90.5 0l-168-168c-12.1-12-18.8-28.2-18.8-45.2zm144-85.5a32 32 0 1 0 -64 0 32 32 0 1 0 64 0z" fill="#fff"/></svg>